<?xml version="1.0" encoding="utf-8"?>
<!-- Generator: Adobe Illustrator 27.5.0, SVG Export Plug-In . SVG Version: 6.00 Build 0)  -->
<svg version="1.1" id="Layer_1" xmlns="http://www.w3.org/2000/svg" xmlns:xlink="http://www.w3.org/1999/xlink" x="0px" y="0px"
	 viewBox="0 0 50 50" style="enable-background:new 0 0 50 50;" xml:space="preserve">
<style type="text/css">
	.st0{fill:#FFFFFF;}
</style>
<path class="st0" d="M3.2,38.4c-0.1-1.5,0.3-2.8,0.9-4.2c0.9-2.3,2-4.6,3.1-6.9c0.8-1.7,1.6-3.3,2.4-5c0.6-1.1,1.1-2.3,1.7-3.5
	c1.1-2.1,2.1-4.3,3.1-6.4c0.9-1.7,1.7-3.3,2.6-5c0.6-1.1,1.1-2.2,1.9-3.1c1.3-1.5,3-2.6,5-2.8c1.6-0.2,3.2,0,4.7,0.8
	c1.1,0.6,2,1.4,2.7,2.4c1.2,1.5,1.9,3.2,2.8,4.9c1.7,3.2,3.3,6.4,4.9,9.6c0.9,1.8,1.7,3.7,2.6,5.6c0.9,1.9,1.8,3.7,2.6,5.6
	c0.8,1.6,1.5,3.2,2.1,4.8c0.6,1.7,0.6,3.3,0.2,5c-0.4,2.1-1.4,3.9-2.9,5.4c-1.6,1.5-3.6,2.5-5.8,2.7c-1.1,0.1-2.2,0.1-3.2-0.1
	c-1.5-0.3-3-0.9-4.3-1.8c-1.8-1.1-3.4-2.6-4.9-4.1c-0.1-0.1-0.1-0.1-0.1-0.2c-0.2-0.2-0.3-0.3-0.6,0c-1,1.1-2.1,2.3-3.4,3.2
	c-2,1.4-4,2.6-6.5,2.9c-1.3,0.2-2.5,0.2-3.8-0.1c-1.4-0.3-2.8-0.9-4-1.9c-1.1-0.9-2.1-2-2.8-3.3c-0.5-0.9-0.8-2-1-3.1
	C3.2,39.5,3.2,39,3.2,38.4z M37.1,45.5c1.6,0,3.2-0.7,4.5-1.9c1.1-1,1.8-2.3,2.1-3.9c0.3-1.3,0.1-2.6-0.3-3.9
	c-0.4-1.1-1-2.2-1.5-3.3c-0.5-1-1-2-1.4-3c-0.5-1.1-1-2.1-1.5-3.1c-0.8-1.8-1.7-3.6-2.5-5.4c-0.8-1.8-1.8-3.6-2.7-5.4
	c-1.3-2.7-2.6-5.4-4.1-8c-0.7-1.3-1.7-2.3-3.1-2.7c-1.8-0.5-3.3-0.1-4.7,1.1c-1.1,0.9-1.6,2.2-2.2,3.4c-1,1.9-2,3.9-3,5.9
	c-1.5,2.9-2.9,5.8-4.3,8.8c-0.7,1.5-1.5,3-2.2,4.5c-1,2.1-2,4.2-2.9,6.4c-0.9,2-1.2,4.1-0.3,6.3c1.1,2.6,3.6,4.3,6.3,4.3
	c1.6,0,3-0.5,4.4-1.2c2-1.1,3.6-2.6,5.1-4.2c0.2-0.2,0.3-0.5,0-0.8c-0.5-0.5-0.9-1.1-1.3-1.7c-1.1-1.6-2.2-3.2-2.9-5
	c-0.7-1.6-1.3-3.2-1.4-5c-0.1-1.5,0-3,0.7-4.4c1.3-2.8,3.6-4.2,6.6-4.5c1.5-0.1,2.9,0.1,4.3,0.8c1.6,0.8,2.8,2,3.6,3.6
	c1,2.1,0.9,4.3,0.4,6.5c-0.9,3.7-3,6.8-5.3,9.7c-0.2,0.2-0.2,0.4,0,0.6c0.6,0.5,1,1.1,1.6,1.6c1,0.9,2,1.7,3.1,2.5
	C33.5,45,35.1,45.5,37.1,45.5z M29.9,26.8c0.1-1.7-0.6-3-1.3-3.7c-1.2-1.2-2.8-1.6-4.4-1.3c-2.8,0.5-4.1,2.6-4,5.1
	c0,1.7,0.6,3.2,1.3,4.7c0.9,2,2.1,3.7,3.5,5.4c0.1,0.1,0.1,0.1,0.2,0c0.3-0.4,0.7-0.8,0.9-1.2c0.6-1,1.4-1.9,1.9-3
	c0.3-0.7,0.8-1.3,1-2C29.4,29.5,30,28.2,29.9,26.8z"/>
</svg>
