<?xml version="1.0" encoding="utf-8"?>
<!-- Generator: Adobe Illustrator 27.5.0, SVG Export Plug-In . SVG Version: 6.00 Build 0)  -->
<svg version="1.1" id="Layer_1" xmlns="http://www.w3.org/2000/svg" xmlns:xlink="http://www.w3.org/1999/xlink" x="0px" y="0px"
	 viewBox="0 0 70 25" style="enable-background:new 0 0 70 25;" xml:space="preserve">
<style type="text/css">
	.st0{fill:#FF5A60;}
</style>
<g>
	<path class="st0" d="M1.5,18.49c-0.03-0.66,0.14-1.27,0.38-1.87c0.42-1.04,0.91-2.04,1.39-3.06c0.35-0.74,0.71-1.48,1.06-2.21
		c0.25-0.51,0.5-1.03,0.75-1.54c0.47-0.94,0.93-1.9,1.4-2.84c0.38-0.75,0.77-1.49,1.16-2.24C7.89,4.23,8.15,3.75,8.5,3.33
		c0.59-0.69,1.32-1.14,2.23-1.27c0.73-0.1,1.43,0.01,2.08,0.35c0.49,0.25,0.88,0.63,1.21,1.06c0.52,0.67,0.85,1.44,1.23,2.18
		c0.73,1.43,1.47,2.86,2.19,4.3c0.41,0.82,0.77,1.66,1.17,2.48c0.41,0.82,0.78,1.66,1.17,2.49c0.34,0.71,0.68,1.42,0.94,2.16
		c0.25,0.73,0.25,1.48,0.1,2.23c-0.19,0.94-0.61,1.75-1.31,2.41c-0.73,0.68-1.59,1.09-2.59,1.21c-0.48,0.05-0.97,0.03-1.43-0.06
		c-0.68-0.14-1.33-0.41-1.93-0.78c-0.82-0.49-1.51-1.14-2.18-1.82c-0.03-0.03-0.04-0.06-0.07-0.09c-0.08-0.09-0.15-0.14-0.26-0.02
		c-0.47,0.51-0.95,1.01-1.51,1.42c-0.87,0.64-1.8,1.15-2.89,1.31c-0.56,0.08-1.13,0.1-1.67-0.03c-0.65-0.15-1.27-0.41-1.8-0.85
		c-0.51-0.41-0.93-0.91-1.23-1.48c-0.22-0.42-0.37-0.88-0.43-1.37C1.5,18.95,1.51,18.72,1.5,18.49z M16.6,21.63
		c0.71,0.02,1.4-0.31,2-0.84c0.51-0.46,0.8-1.05,0.93-1.72c0.12-0.59,0.06-1.18-0.15-1.73c-0.2-0.5-0.43-0.99-0.65-1.48
		c-0.2-0.45-0.42-0.89-0.61-1.35c-0.2-0.48-0.47-0.92-0.67-1.4c-0.34-0.81-0.76-1.59-1.13-2.38c-0.38-0.82-0.8-1.61-1.2-2.42
		c-0.6-1.19-1.18-2.4-1.83-3.57c-0.32-0.57-0.76-1.01-1.4-1.2C11.09,3.3,10.39,3.5,9.78,4.03c-0.48,0.41-0.71,0.99-1,1.53
		C8.32,6.42,7.9,7.31,7.45,8.19c-0.67,1.29-1.3,2.6-1.93,3.91c-0.32,0.67-0.66,1.34-0.98,2.02C4.1,15.05,3.66,16,3.24,16.95
		c-0.41,0.91-0.54,1.84-0.14,2.8c0.48,1.14,1.6,1.91,2.83,1.91c0.7,0,1.33-0.21,1.94-0.54c0.88-0.48,1.59-1.16,2.28-1.87
		c0.1-0.1,0.12-0.22,0.01-0.35c-0.2-0.24-0.39-0.49-0.57-0.75c-0.49-0.7-0.97-1.42-1.3-2.22C8,15.21,7.72,14.5,7.66,13.71
		c-0.05-0.69,0-1.35,0.3-1.98c0.59-1.24,1.62-1.86,2.96-1.99c0.66-0.06,1.3,0.06,1.91,0.34c0.74,0.34,1.26,0.87,1.61,1.59
		c0.46,0.94,0.42,1.93,0.17,2.91c-0.42,1.64-1.32,3.03-2.38,4.33c-0.08,0.1-0.11,0.17,0,0.26c0.26,0.21,0.46,0.49,0.71,0.72
		c0.45,0.39,0.89,0.78,1.4,1.09C15,21.39,15.71,21.63,16.6,21.63z M13.39,13.32c0.04-0.76-0.27-1.33-0.59-1.64
		c-0.56-0.54-1.23-0.73-1.98-0.6c-1.25,0.22-1.83,1.17-1.81,2.26c0.02,0.74,0.26,1.43,0.58,2.09c0.42,0.87,0.95,1.66,1.55,2.42
		c0.05,0.06,0.07,0.06,0.11,0.01c0.14-0.18,0.29-0.34,0.42-0.53c0.29-0.44,0.61-0.86,0.84-1.35c0.14-0.3,0.33-0.56,0.45-0.88
		C13.17,14.53,13.43,13.95,13.39,13.32z"/>
	<path class="st0" d="M43.23,11.81c0-1.89,0-3.77,0-5.66c0-0.16,0.03-0.21,0.2-0.21c0.56,0.01,1.12,0.01,1.67,0
		c0.14,0,0.18,0.04,0.18,0.18c-0.01,1.31,0,2.62,0,3.93c0,0.06-0.04,0.15,0.03,0.18c0.06,0.03,0.09-0.06,0.14-0.1
		c0.47-0.37,1-0.59,1.6-0.61c0.64-0.02,1.26,0.04,1.85,0.29c0.77,0.32,1.37,0.83,1.82,1.54c0.53,0.84,0.71,1.76,0.62,2.72
		c-0.14,1.64-1.12,3.02-2.76,3.55c-0.88,0.28-1.78,0.33-2.65-0.1c-0.22-0.11-0.4-0.25-0.59-0.4c-0.02-0.02-0.04-0.07-0.08-0.04
		c-0.02,0.01-0.01,0.05-0.02,0.08c-0.04,0.45-0.07,0.47-0.51,0.47c-0.42,0-0.85-0.01-1.27,0c-0.18,0.01-0.24-0.01-0.24-0.22
		c0.01-1.52,0.01-3.04,0.01-4.55C43.23,12.52,43.23,12.16,43.23,11.81z M49.29,13.67c-0.01-0.65-0.2-1.22-0.71-1.67
		c-0.81-0.71-2.07-0.81-2.96-0.08c-0.23,0.19-0.38,0.39-0.36,0.73c0.04,0.66,0.04,1.32,0,1.97c-0.03,0.42,0.17,0.65,0.46,0.87
		c0.54,0.4,1.15,0.47,1.79,0.35c0.46-0.09,0.88-0.3,1.2-0.64C49.12,14.79,49.3,14.26,49.29,13.67z"/>
	<path class="st0" d="M60.38,11.8c0-1.86,0-3.73-0.01-5.59c0-0.22,0.06-0.27,0.27-0.26c0.54,0.02,1.07,0.01,1.61,0
		c0.14,0,0.18,0.04,0.18,0.18c-0.01,1.31,0,2.62,0,3.93c0,0.06-0.03,0.15,0.03,0.19c0.06,0.03,0.09-0.06,0.14-0.1
		c0.51-0.38,1.06-0.6,1.71-0.62c1.03-0.03,1.95,0.25,2.74,0.9c0.75,0.61,1.21,1.4,1.38,2.35c0.18,0.98,0.11,1.95-0.35,2.86
		c-0.35,0.7-0.86,1.26-1.55,1.66c-0.69,0.4-1.42,0.57-2.21,0.55c-0.67-0.02-1.28-0.23-1.78-0.71c-0.02-0.02-0.06-0.06-0.08-0.05
		c-0.05,0.02-0.03,0.07-0.02,0.1c0.05,0.34-0.15,0.48-0.48,0.46c-0.46-0.02-0.93-0.01-1.39,0c-0.15,0-0.18-0.05-0.18-0.19
		C60.38,15.57,60.38,13.68,60.38,11.8z M62.42,13.65c0,0.41,0,0.83,0,1.24c0,0.13,0.04,0.22,0.13,0.31
		c0.35,0.37,0.76,0.62,1.28,0.68c0.76,0.09,1.43-0.1,1.99-0.62c0.46-0.43,0.63-1,0.63-1.61c0.01-0.62-0.18-1.2-0.66-1.62
		c-0.84-0.74-2.1-0.87-3.04-0.09c-0.22,0.18-0.37,0.37-0.33,0.69C62.45,12.97,62.42,13.31,62.42,13.65z"/>
	<path class="st0" d="M33.19,13.7c0,1.25,0,2.5,0,3.75c0,0.15-0.03,0.2-0.19,0.2c-0.47-0.01-0.94,0-1.41,0
		c-0.32,0-0.41-0.09-0.42-0.4c0-0.05,0.02-0.11-0.03-0.13c-0.03-0.01-0.07,0.04-0.11,0.07c-0.65,0.58-1.42,0.72-2.26,0.65
		c-0.54-0.05-1.05-0.2-1.54-0.44c-0.7-0.35-1.22-0.87-1.6-1.55c-0.4-0.7-0.56-1.46-0.55-2.26c0.01-0.84,0.21-1.64,0.69-2.32
		c0.68-0.96,1.61-1.56,2.81-1.7c0.63-0.07,1.24-0.04,1.83,0.21c0.24,0.1,0.46,0.25,0.65,0.43c0.02,0.02,0.05,0.08,0.09,0.05
		c0.02-0.01,0.01-0.06,0.02-0.09c0.02-0.38,0.08-0.43,0.45-0.43c0.46,0,0.93,0.01,1.39,0c0.14,0,0.18,0.04,0.18,0.18
		C33.18,11.17,33.19,12.43,33.19,13.7z M31.17,13.69c0-0.42,0-0.84,0-1.26c0-0.11-0.03-0.19-0.1-0.27c-0.98-1.12-2.91-0.84-3.6,0.32
		c-0.56,0.93-0.38,2.45,0.67,3.08c0.93,0.56,2.14,0.45,2.86-0.29c0.11-0.11,0.17-0.23,0.17-0.4C31.17,14.48,31.17,14.08,31.17,13.69
		z"/>
	<path class="st0" d="M52.14,13.67c0-1.24,0-2.49,0-3.73c0-0.15,0.03-0.21,0.2-0.21c0.45,0.01,0.89,0,1.34,0
		c0.28,0,0.38,0.1,0.38,0.38c0,0.06-0.04,0.14,0.03,0.17c0.06,0.03,0.09-0.06,0.14-0.1c0.49-0.41,1.06-0.61,1.69-0.65
		c0.71-0.04,1.4,0.04,2.03,0.41c0.78,0.45,1.26,1.1,1.38,2c0.07,0.5,0.06,1,0.06,1.5c0,1.33,0,2.67,0,4c0,0.17-0.05,0.2-0.2,0.2
		c-0.54-0.01-1.07-0.01-1.61,0c-0.18,0-0.24-0.04-0.24-0.24c0.01-1.49,0.01-2.98,0-4.47c0-0.33-0.08-0.65-0.22-0.94
		c-0.22-0.45-0.64-0.59-1.11-0.62c-0.68-0.05-1.24,0.23-1.73,0.67c-0.09,0.08-0.09,0.19-0.09,0.29c0,1.69,0,3.38,0,5.07
		c0,0.19-0.05,0.23-0.23,0.23c-0.54-0.01-1.07-0.01-1.61,0c-0.16,0-0.22-0.03-0.22-0.21C52.14,16.18,52.14,14.93,52.14,13.67z"/>
	<path class="st0" d="M37.67,13.67c0-1.28,0-2.56,0-3.83c0-0.09,0.03-0.1,0.1-0.1c0.56,0,1.12-0.01,1.67,0
		c0.23,0.01,0.28,0.19,0.28,0.38c0,0.05,0.01,0.09,0.02,0.14c0.04-0.03,0.08-0.05,0.12-0.09c0.74-0.63,1.59-0.76,2.51-0.58
		c0.08,0.02,0.1,0.06,0.1,0.13c0,0.55,0,1.1,0,1.66c0,0.15-0.08,0.12-0.17,0.1c-0.69-0.16-1.36-0.14-2,0.21
		c-0.2,0.11-0.35,0.27-0.52,0.41c-0.06,0.06-0.05,0.13-0.05,0.2c0,1.7,0,3.4,0,5.11c0,0.18-0.05,0.23-0.23,0.23
		c-0.54-0.01-1.08-0.01-1.62,0c-0.17,0-0.2-0.05-0.2-0.21C37.67,16.18,37.67,14.93,37.67,13.67C37.67,13.67,37.67,13.67,37.67,13.67
		z"/>
	<path class="st0" d="M34.42,13.67c0-1.25,0-2.5,0-3.75c0-0.14,0.04-0.19,0.19-0.19c0.56,0.01,1.13,0.01,1.69,0
		c0.13,0,0.18,0.03,0.18,0.16c0,2.53,0,5.06,0,7.58c0,0.12-0.03,0.16-0.16,0.16c-0.57-0.01-1.15-0.01-1.72,0
		c-0.14,0-0.17-0.04-0.17-0.17C34.42,16.21,34.42,14.94,34.42,13.67z"/>
	<path class="st0" d="M35.45,8.67c-0.8,0-1.4-0.57-1.4-1.35c0-0.82,0.59-1.39,1.36-1.39c0.75,0,1.4,0.52,1.4,1.37
		C36.83,8.08,36.21,8.7,35.45,8.67z"/>
</g>
</svg>
