<?xml version="1.0" encoding="utf-8"?>
<!-- Generator: Adobe Illustrator 27.5.0, SVG Export Plug-In . SVG Version: 6.00 Build 0)  -->
<svg version="1.1" id="Layer_1" xmlns="http://www.w3.org/2000/svg" xmlns:xlink="http://www.w3.org/1999/xlink" x="0px" y="0px"
	 viewBox="0 0 50 50" style="enable-background:new 0 0 50 50;" xml:space="preserve">
<style type="text/css">
	.st0{fill:#FF5A60;}
</style>
<path class="st0" d="M3.2,38.44c-0.07-1.47,0.31-2.85,0.85-4.21C5,31.9,6.1,29.64,7.16,27.37c0.78-1.66,1.59-3.31,2.38-4.97
	c0.55-1.15,1.12-2.3,1.69-3.45c1.06-2.12,2.08-4.26,3.15-6.38c0.85-1.69,1.74-3.35,2.59-5.04c0.56-1.09,1.14-2.18,1.94-3.11
	c1.32-1.55,2.96-2.56,5.01-2.85c1.64-0.23,3.2,0.03,4.67,0.79c1.1,0.57,1.97,1.41,2.73,2.39c1.16,1.5,1.9,3.23,2.75,4.89
	c1.65,3.21,3.31,6.42,4.92,9.65c0.91,1.83,1.72,3.72,2.63,5.56c0.91,1.85,1.75,3.72,2.64,5.58c0.76,1.59,1.52,3.18,2.1,4.85
	c0.57,1.65,0.57,3.32,0.22,5.01c-0.43,2.1-1.36,3.94-2.93,5.41c-1.64,1.53-3.56,2.46-5.82,2.71c-1.09,0.12-2.17,0.07-3.2-0.14
	c-1.53-0.31-2.97-0.93-4.33-1.75c-1.84-1.11-3.39-2.57-4.89-4.07c-0.06-0.06-0.1-0.14-0.15-0.2c-0.18-0.21-0.34-0.32-0.59-0.05
	c-1.05,1.14-2.14,2.26-3.4,3.19c-1.95,1.44-4.04,2.58-6.49,2.94c-1.27,0.19-2.53,0.22-3.75-0.07c-1.45-0.34-2.84-0.93-4.04-1.9
	c-1.14-0.93-2.08-2.04-2.76-3.31c-0.5-0.94-0.82-1.98-0.96-3.07C3.2,39.48,3.22,38.96,3.2,38.44z M37.08,45.49
	c1.6,0.04,3.15-0.69,4.48-1.89c1.14-1.03,1.79-2.35,2.08-3.86c0.26-1.33,0.14-2.64-0.35-3.89c-0.44-1.13-0.97-2.22-1.47-3.33
	c-0.45-1.01-0.95-2-1.38-3.02c-0.45-1.07-1.05-2.07-1.5-3.14c-0.77-1.82-1.71-3.56-2.54-5.35c-0.85-1.83-1.79-3.62-2.7-5.43
	c-1.35-2.68-2.65-5.39-4.12-8.01c-0.72-1.29-1.7-2.26-3.13-2.68c-1.75-0.52-3.32-0.08-4.67,1.1c-1.07,0.93-1.6,2.23-2.25,3.43
	c-1.04,1.94-1.97,3.95-2.99,5.9c-1.51,2.89-2.91,5.84-4.33,8.77c-0.73,1.51-1.48,3.01-2.19,4.52C9.03,30.73,8.05,32.86,7.09,35
	c-0.91,2.04-1.21,4.12-0.31,6.28c1.08,2.56,3.58,4.28,6.35,4.28c1.57,0,2.99-0.46,4.36-1.22c1.98-1.08,3.58-2.6,5.12-4.2
	c0.23-0.23,0.28-0.49,0.03-0.79c-0.45-0.54-0.88-1.1-1.29-1.68c-1.11-1.58-2.18-3.19-2.92-4.98c-0.66-1.61-1.29-3.21-1.43-4.98
	c-0.12-1.55,0-3.03,0.67-4.44c1.33-2.79,3.64-4.18,6.64-4.46c1.48-0.14,2.91,0.13,4.29,0.76c1.65,0.76,2.83,1.96,3.62,3.56
	c1.04,2.11,0.94,4.33,0.38,6.53c-0.94,3.69-2.97,6.8-5.33,9.72c-0.18,0.22-0.25,0.38-0.01,0.58c0.59,0.48,1.03,1.11,1.6,1.61
	c1,0.87,1.99,1.74,3.13,2.45C33.49,44.95,35.07,45.49,37.08,45.49z M29.88,26.84c0.1-1.7-0.61-2.99-1.32-3.68
	c-1.25-1.21-2.76-1.64-4.45-1.34c-2.81,0.5-4.12,2.63-4.05,5.08c0.04,1.66,0.59,3.22,1.31,4.7c0.94,1.95,2.14,3.73,3.47,5.43
	c0.1,0.13,0.15,0.14,0.25,0.02c0.31-0.4,0.66-0.77,0.93-1.19c0.65-0.99,1.37-1.94,1.88-3.03c0.31-0.66,0.75-1.27,1.01-1.97
	C29.38,29.55,29.96,28.25,29.88,26.84z"/>
</svg>
