<?xml version="1.0" encoding="utf-8"?>
<!-- Generator: Adobe Illustrator 27.5.0, SVG Export Plug-In . SVG Version: 6.00 Build 0)  -->
<svg version="1.1" id="Layer_1" xmlns="http://www.w3.org/2000/svg" xmlns:xlink="http://www.w3.org/1999/xlink" x="0px" y="0px"
	 viewBox="0 0 100 100" style="enable-background:new 0 0 100 100;" xml:space="preserve">
<style type="text/css">
	.st0{fill:#6096B4;}
</style>
<g>
	<path d="M28.92,38.26c5.18,10.2,10.33,20.34,15.52,30.57c-12.92,0-25.71,0-38.53,0c0,1.14,0,2.22,0,3.33c29.71,0,59.4,0,89.08,0
		c0-1.13,0-2.21,0-3.33c-0.25,0-0.44,0-0.64,0c-7.18,0-14.35,0-21.53,0c-7.99,0-15.98,0-23.98,0.01c-0.42,0-0.67-0.09-0.88-0.5
		c-1.61-3.21-3.25-6.4-4.87-9.6c-3.06-6.03-6.13-12.05-9.19-18.08c-0.65-1.29-1.3-2.58-1.98-3.92c2.74-1.39,5.44-2.76,8.15-4.14
		c-0.02-0.08-0.03-0.14-0.06-0.18c-2.92-5.32-6.44-10.16-11.29-13.91c-1.75-1.35-3.66-2.47-5.9-2.8c-1.9-0.29-3.58,0.19-4.72,1.84
		c-0.48,0.69-0.87,1.47-1.12,2.27c-0.99,3.22-0.73,6.48-0.19,9.73c0.55,3.32,1.57,6.5,2.83,9.61c0.42,1.04,0.9,2.05,1.37,3.09
		C23.68,40.9,26.26,39.59,28.92,38.26z M5.66,80.57c0.57-0.46,1.03-0.87,1.52-1.23c2.16-1.58,4.29-1.66,6.51-0.17
		c0.87,0.58,1.63,1.33,2.43,2c0.96,0.8,1.85,1.69,2.88,2.38c2.89,1.94,5.96,2.28,9.11,0.65c1.57-0.81,2.81-2.04,4.05-3.29
		c0.79-0.8,1.69-1.51,2.63-2.12c0.91-0.59,1.95-0.85,3.07-0.68c1.68,0.26,3,1.18,4.23,2.28c1.14,1.01,2.23,2.1,3.46,3
		c2.2,1.61,4.67,2.24,7.37,1.55c1.87-0.48,3.42-1.56,4.8-2.87c0.95-0.9,1.82-1.9,2.86-2.69c2.32-1.78,4.83-1.7,7.1,0.15
		c1.34,1.09,2.57,2.32,3.96,3.34c2.04,1.5,4.34,2.2,6.9,1.73c1.89-0.35,3.48-1.3,4.88-2.57c0.85-0.77,1.6-1.65,2.46-2.42
		c1.33-1.2,2.81-2.09,4.7-1.93c1.39,0.11,2.51,0.8,3.58,1.62c0.24,0.19,0.48,0.38,0.81,0.65c0-1.38,0.01-2.63-0.01-3.88
		c0-0.17-0.16-0.41-0.32-0.5c-2.27-1.34-4.67-1.7-7.2-0.83c-2.11,0.73-3.71,2.17-5.24,3.73c-0.7,0.72-1.47,1.4-2.3,1.96
		c-1.79,1.22-3.68,1.24-5.55,0.15c-0.61-0.36-1.19-0.79-1.75-1.23c-1.38-1.09-2.67-2.33-4.14-3.29c-1.91-1.24-4.06-1.65-6.33-1.12
		c-1.74,0.41-3.23,1.3-4.54,2.49c-0.98,0.89-1.87,1.89-2.88,2.76c-1.39,1.19-2.96,1.95-4.86,1.53c-1.46-0.32-2.64-1.16-3.73-2.14
		c-1.06-0.96-2.07-1.99-3.21-2.84c-2.49-1.85-5.23-2.62-8.29-1.57c-1.99,0.68-3.55,1.97-5,3.44c-0.79,0.8-1.62,1.59-2.53,2.24
		c-1.8,1.28-3.75,1.4-5.64,0.24c-1.05-0.65-1.97-1.53-2.94-2.3c-1.13-0.9-2.17-1.95-3.4-2.69c-2.96-1.79-6.01-1.8-9.03-0.07
		c-0.19,0.11-0.41,0.36-0.42,0.55C5.64,77.86,5.66,79.15,5.66,80.57z M94.98,90.16c0-1.37,0.01-2.62-0.01-3.86
		c0-0.15-0.15-0.36-0.29-0.45c-1.83-1.12-3.81-1.55-5.93-1.17c-2.28,0.4-4.08,1.68-5.7,3.24c-0.87,0.84-1.7,1.74-2.65,2.48
		c-1.84,1.43-3.87,1.72-5.94,0.5c-0.93-0.55-1.76-1.28-2.61-1.96c-0.96-0.76-1.86-1.63-2.87-2.31c-2.05-1.38-4.32-1.97-6.79-1.41
		c-1.85,0.41-3.4,1.4-4.77,2.67c-0.97,0.91-1.88,1.89-2.89,2.74c-1.5,1.25-3.22,1.9-5.17,1.2c-0.81-0.29-1.61-0.72-2.28-1.25
		c-1.49-1.18-2.84-2.55-4.35-3.69c-2.94-2.22-6.48-2.66-9.68-0.7c-1.27,0.78-2.35,1.87-3.5,2.84c-0.59,0.5-1.1,1.1-1.7,1.58
		c-2.54,2.04-5.12,2.04-7.63-0.05c-1.28-1.06-2.44-2.28-3.74-3.32c-3.23-2.59-6.96-2.9-10.37-0.96c-0.31,0.17-0.45,0.36-0.44,0.74
		c0.03,1.11,0.01,2.23,0.01,3.34c0,0.14,0.03,0.29,0.04,0.42c0.71-0.53,1.36-1.09,2.08-1.54c1.46-0.92,3.04-1.18,4.65-0.45
		c0.79,0.35,1.55,0.81,2.22,1.36c1.26,1.03,2.38,2.23,3.67,3.21c3.87,2.96,8,2.88,11.76-0.21c1.01-0.83,1.88-1.83,2.84-2.72
		c1.09-1.01,2.29-1.85,3.82-2.03c1.79-0.21,3.26,0.54,4.58,1.63c1.25,1.04,2.38,2.22,3.66,3.23c2.17,1.72,4.64,2.58,7.44,2.06
		c2.21-0.41,3.95-1.66,5.54-3.19c1.01-0.97,2-2,3.14-2.81c1.64-1.17,3.48-1.3,5.29-0.32c0.73,0.39,1.41,0.89,2.06,1.41
		c1.31,1.03,2.5,2.22,3.88,3.14c2.45,1.61,5.12,1.93,7.89,0.82c1.55-0.62,2.84-1.64,4.04-2.79c0.85-0.83,1.66-1.72,2.6-2.44
		c2.12-1.61,4.28-1.62,6.51-0.16C93.88,89.32,94.37,89.72,94.98,90.16z M19.24,43.14c-0.52-1.19-1.04-2.3-1.49-3.45
		c-1.44-3.68-2.59-7.44-3.08-11.38c-0.32-2.58-0.4-5.14,0.12-7.7c0.36-1.76,1.01-3.39,2.15-4.81c-0.13,0.02-0.24,0.07-0.33,0.13
		c-2.79,1.82-5.2,4.05-7.08,6.81C6.63,26.96,5.11,31.63,5,36.75c-0.08,3.94,0.78,7.67,2.51,11.21c0.28,0.58,0.67,0.72,1.27,0.45
		c0.34-0.16,0.66-0.37,0.99-0.54C12.92,46.3,16.05,44.73,19.24,43.14z M41.96,31.61c0,0,0.06,0,0.11-0.02
		c3.33-1.67,6.66-3.34,9.99-5.02c0.55-0.28,0.68-0.76,0.36-1.36c-2.87-5.27-7.08-9.07-12.61-11.36c-4.69-1.94-9.55-2.41-14.52-1.41
		c-1.38,0.28-2.72,0.73-4.08,1.1c0.7,0.17,1.38,0.15,2.03,0.25c2.02,0.32,3.81,1.19,5.49,2.31c3.67,2.45,6.59,5.66,9.12,9.22
		C39.28,27.34,40.56,29.47,41.96,31.61z M85.02,19.44c0-4.85-3.9-8.74-8.79-8.76c-4.85-0.02-8.8,3.91-8.79,8.75
		c0,4.86,3.9,8.81,8.76,8.8C81.21,28.23,85.06,24.2,85.02,19.44z M88.32,20.29c0.64,0,1.27,0,1.91,0c0.64-0.01,1.02-0.32,1.04-0.82
		c0.02-0.49-0.4-0.84-1.02-0.84c-1.27-0.01-2.54-0.01-3.81,0c-0.58,0-0.96,0.34-0.97,0.82c-0.01,0.48,0.38,0.83,0.95,0.84
		C87.05,20.3,87.69,20.29,88.32,20.29z M64.12,18.62c-0.67,0-1.35-0.01-2.02,0c-0.55,0.01-0.88,0.33-0.89,0.82
		c0,0.5,0.32,0.83,0.87,0.84c1.33,0.01,2.65,0.01,3.98,0c0.52,0,0.89-0.36,0.9-0.83c0.01-0.48-0.38-0.83-0.95-0.83
		C65.39,18.62,64.75,18.62,64.12,18.62z M84.24,7.09c-0.22-0.21-0.41-0.52-0.69-0.66c-0.43-0.22-0.77,0.04-0.99,0.41
		c-0.66,1.1-1.3,2.22-1.94,3.33c-0.31,0.55-0.21,1.04,0.23,1.29c0.45,0.25,0.89,0.09,1.22-0.47c0.65-1.11,1.29-2.22,1.93-3.34
		C84.08,7.52,84.12,7.37,84.24,7.09z M72.08,10.87c-0.03-0.03-0.06-0.06-0.1-0.09c-0.01-0.08,0.01-0.17-0.02-0.23
		c-0.76-1.32-1.51-2.65-2.31-3.94c-0.21-0.33-0.61-0.32-0.96-0.08c-0.35,0.24-0.55,0.57-0.33,0.96c0.7,1.27,1.41,2.53,2.18,3.75
		c0.13,0.21,0.64,0.29,0.93,0.24C71.71,11.43,71.88,11.08,72.08,10.87z M84.2,31.87c-0.07-0.27-0.08-0.4-0.14-0.49
		c-0.7-1.22-1.39-2.45-2.12-3.66c-0.24-0.41-0.64-0.53-1.08-0.27c-0.46,0.27-0.56,0.69-0.32,1.12c0.67,1.21,1.36,2.42,2.11,3.59
		c0.14,0.21,0.63,0.33,0.92,0.28C83.83,32.39,84.03,32.04,84.2,31.87z M89.35,12.49c-0.01-0.71-0.64-1.09-1.22-0.85
		c-0.24,0.1-0.45,0.25-0.67,0.38c-0.96,0.55-1.93,1.09-2.89,1.66c-0.44,0.26-0.57,0.68-0.32,1.12c0.22,0.4,0.57,0.59,1.04,0.32
		c1.24-0.7,2.49-1.39,3.72-2.11C89.19,12.9,89.28,12.61,89.35,12.49z M68.3,14.26c-0.07-0.11-0.17-0.41-0.37-0.53
		c-1.19-0.72-2.39-1.42-3.6-2.08c-0.4-0.21-0.85-0.14-1.09,0.3c-0.22,0.4-0.2,0.83,0.24,1.09c1.21,0.72,2.42,1.44,3.65,2.11
		C67.67,15.45,68.28,15.04,68.3,14.26z M89.34,26.39c-0.08-0.11-0.18-0.41-0.39-0.53c-1.2-0.73-2.42-1.42-3.65-2.11
		c-0.45-0.25-0.83-0.04-1.06,0.35c-0.22,0.38-0.15,0.8,0.25,1.04c1.23,0.72,2.46,1.44,3.71,2.12
		C88.74,27.54,89.33,27.13,89.34,26.39z M67.62,23.61c-0.24,0.07-0.37,0.08-0.47,0.14c-1.24,0.71-2.48,1.41-3.7,2.14
		c-0.42,0.25-0.44,0.68-0.25,1.05c0.22,0.43,0.65,0.55,1.07,0.32c1.25-0.69,2.49-1.39,3.69-2.16c0.2-0.13,0.34-0.61,0.27-0.86
		C68.16,23.97,67.81,23.79,67.62,23.61z M72.06,28.02c-0.21-0.21-0.42-0.59-0.65-0.6c-0.31-0.02-0.77,0.16-0.93,0.41
		c-0.72,1.09-1.37,2.23-2.03,3.36c-0.27,0.46-0.11,0.98,0.32,1.22c0.43,0.23,0.84,0.1,1.14-0.41c0.64-1.1,1.26-2.2,1.88-3.31
		C71.88,28.53,71.93,28.34,72.06,28.02z M77.03,31.63c-0.01,0-0.02,0-0.04,0c0-0.69,0-1.38,0-2.08c0-0.53-0.3-0.81-0.78-0.87
		c-0.41-0.05-0.76,0.35-0.77,0.87c-0.02,1.33-0.03,2.65-0.02,3.98c0,0.56,0.33,0.9,0.8,0.9c0.48,0,0.79-0.33,0.8-0.9
		C77.04,32.89,77.03,32.26,77.03,31.63z M77.03,7.35C77.03,7.35,77.03,7.35,77.03,7.35c-0.01-0.65,0.01-1.31-0.01-1.96
		c-0.01-0.57-0.31-0.9-0.79-0.92c-0.46-0.01-0.8,0.34-0.81,0.9c-0.01,1.31-0.01,2.62,0,3.92c0.01,0.58,0.32,0.91,0.79,0.92
		c0.48,0.01,0.8-0.32,0.82-0.9C77.04,8.66,77.03,8.01,77.03,7.35z"/>
	<path class="st0" d="M28.92,38.26c-2.66,1.34-5.24,2.64-7.91,3.98c-0.46-1.04-0.95-2.05-1.37-3.09c-1.26-3.11-2.28-6.29-2.83-9.61
		c-0.54-3.25-0.8-6.51,0.19-9.73c0.25-0.8,0.65-1.58,1.12-2.27c1.14-1.65,2.81-2.13,4.72-1.84c2.24,0.34,4.15,1.45,5.9,2.8
		c4.85,3.75,8.37,8.59,11.29,13.91c0.03,0.05,0.03,0.1,0.06,0.18c-2.71,1.38-5.41,2.75-8.15,4.14c0.68,1.34,1.33,2.63,1.98,3.92
		c3.06,6.03,6.13,12.06,9.19,18.08c1.63,3.2,3.27,6.39,4.87,9.6c0.21,0.41,0.46,0.5,0.88,0.5c7.99-0.01,15.98-0.01,23.98-0.01
		c7.18,0,14.35,0,21.53,0c0.2,0,0.39,0,0.64,0c0,1.13,0,2.21,0,3.33c-29.68,0-59.37,0-89.08,0c0-1.11,0-2.19,0-3.33
		c12.82,0,25.61,0,38.53,0C39.25,58.59,34.1,48.46,28.92,38.26z"/>
	<path class="st0" d="M5.66,80.57c0-1.41-0.02-2.7,0.02-3.99c0.01-0.19,0.23-0.45,0.42-0.55c3.02-1.73,6.07-1.72,9.03,0.07
		c1.23,0.74,2.27,1.79,3.4,2.69c0.97,0.78,1.88,1.66,2.94,2.3c1.89,1.16,3.85,1.03,5.64-0.24c0.91-0.65,1.74-1.44,2.53-2.24
		c1.45-1.47,3.02-2.76,5-3.44c3.06-1.04,5.8-0.28,8.29,1.57c1.14,0.85,2.15,1.89,3.21,2.84c1.09,0.98,2.27,1.82,3.73,2.14
		c1.9,0.42,3.48-0.34,4.86-1.53c1.01-0.87,1.9-1.87,2.88-2.76c1.31-1.19,2.8-2.08,4.54-2.49c2.27-0.53,4.42-0.12,6.33,1.12
		c1.47,0.96,2.75,2.2,4.14,3.29c0.56,0.44,1.14,0.87,1.75,1.23c1.87,1.09,3.76,1.07,5.55-0.15c0.83-0.56,1.6-1.24,2.3-1.96
		c1.52-1.57,3.13-3,5.24-3.73c2.53-0.88,4.92-0.51,7.2,0.83c0.15,0.09,0.31,0.33,0.32,0.5c0.03,1.25,0.01,2.49,0.01,3.88
		c-0.33-0.26-0.56-0.46-0.81-0.65c-1.07-0.82-2.19-1.5-3.58-1.62c-1.9-0.16-3.38,0.73-4.7,1.93c-0.85,0.77-1.6,1.65-2.46,2.42
		c-1.4,1.27-2.99,2.22-4.88,2.57c-2.56,0.47-4.86-0.23-6.9-1.73c-1.39-1.02-2.62-2.25-3.96-3.34c-2.27-1.84-4.78-1.92-7.1-0.15
		c-1.03,0.79-1.91,1.79-2.86,2.69c-1.39,1.31-2.93,2.39-4.8,2.87c-2.7,0.7-5.17,0.06-7.37-1.55c-1.23-0.9-2.32-1.98-3.46-3
		c-1.23-1.09-2.55-2.02-4.23-2.28c-1.12-0.17-2.16,0.09-3.07,0.68c-0.94,0.61-1.84,1.32-2.63,2.12c-1.24,1.25-2.48,2.48-4.05,3.29
		c-3.16,1.63-6.22,1.29-9.11-0.65c-1.03-0.69-1.92-1.58-2.88-2.38c-0.81-0.67-1.57-1.41-2.43-2c-2.22-1.5-4.35-1.41-6.51,0.17
		C6.69,79.7,6.23,80.1,5.66,80.57z"/>
	<path class="st0" d="M94.98,90.16c-0.61-0.44-1.11-0.84-1.63-1.18c-2.23-1.46-4.39-1.45-6.51,0.16c-0.94,0.71-1.75,1.61-2.6,2.44
		c-1.19,1.16-2.48,2.17-4.04,2.79c-2.77,1.11-5.44,0.8-7.89-0.82c-1.38-0.91-2.57-2.1-3.88-3.14c-0.65-0.51-1.33-1.01-2.06-1.41
		c-1.81-0.98-3.64-0.85-5.29,0.32c-1.14,0.81-2.13,1.84-3.14,2.81c-1.59,1.53-3.33,2.77-5.54,3.19c-2.8,0.52-5.27-0.33-7.44-2.06
		c-1.27-1.01-2.4-2.2-3.66-3.23c-1.31-1.09-2.79-1.84-4.58-1.63c-1.53,0.18-2.73,1.01-3.82,2.03c-0.96,0.89-1.83,1.89-2.84,2.72
		c-3.76,3.09-7.89,3.17-11.76,0.21c-1.29-0.99-2.41-2.19-3.67-3.21c-0.67-0.54-1.44-1-2.22-1.36c-1.61-0.73-3.19-0.47-4.65,0.45
		c-0.72,0.45-1.37,1.01-2.08,1.54c-0.01-0.13-0.04-0.27-0.04-0.42c0-1.11,0.02-2.23-0.01-3.34c-0.01-0.38,0.14-0.57,0.44-0.74
		c3.41-1.94,7.14-1.63,10.37,0.96c1.3,1.04,2.46,2.26,3.74,3.32c2.51,2.08,5.09,2.08,7.63,0.05c0.6-0.48,1.11-1.08,1.7-1.58
		c1.15-0.97,2.23-2.06,3.5-2.84c3.2-1.96,6.75-1.52,9.68,0.7c1.52,1.14,2.86,2.51,4.35,3.69c0.67,0.53,1.47,0.96,2.28,1.25
		c1.95,0.7,3.67,0.05,5.17-1.2c1.02-0.85,1.92-1.84,2.89-2.74c1.37-1.28,2.92-2.26,4.77-2.67c2.47-0.55,4.74,0.03,6.79,1.41
		c1.01,0.68,1.91,1.55,2.87,2.31c0.85,0.67,1.68,1.41,2.61,1.96c2.06,1.22,4.09,0.93,5.94-0.5c0.95-0.74,1.78-1.64,2.65-2.48
		c1.63-1.56,3.42-2.84,5.7-3.24c2.12-0.37,4.1,0.06,5.93,1.17c0.14,0.09,0.29,0.29,0.29,0.45C94.99,87.54,94.98,88.79,94.98,90.16z"
		/>
	<path class="st0" d="M19.24,43.14c-3.18,1.59-6.32,3.15-9.46,4.72c-0.34,0.17-0.65,0.38-0.99,0.54c-0.6,0.27-0.99,0.13-1.27-0.45
		C5.78,44.42,4.93,40.69,5,36.75c0.1-5.12,1.62-9.79,4.51-14.01c1.89-2.76,4.29-4.99,7.08-6.81c0.09-0.06,0.2-0.1,0.33-0.13
		c-1.14,1.42-1.79,3.05-2.15,4.81c-0.52,2.56-0.44,5.13-0.12,7.7c0.5,3.94,1.64,7.7,3.08,11.38C18.2,40.84,18.72,41.95,19.24,43.14z
		"/>
	<path class="st0" d="M41.96,31.61c-1.39-2.14-2.67-4.27-4.11-6.29c-2.53-3.56-5.45-6.77-9.12-9.22c-1.68-1.12-3.48-1.99-5.49-2.31
		c-0.65-0.1-1.33-0.09-2.03-0.25c1.36-0.37,2.7-0.83,4.08-1.1c4.97-0.99,9.83-0.53,14.52,1.41c5.54,2.29,9.75,6.09,12.61,11.36
		c0.32,0.59,0.2,1.08-0.36,1.36c-3.33,1.68-6.66,3.35-9.99,5.02C42.02,31.61,41.95,31.61,41.96,31.61z"/>
	<path class="st0" d="M85.02,19.44c0.04,4.76-3.8,8.79-8.82,8.79c-4.86,0.01-8.76-3.94-8.76-8.8c0-4.84,3.95-8.77,8.79-8.75
		C81.12,10.7,85.02,14.59,85.02,19.44z"/>
	<path class="st0" d="M88.32,20.29c-0.64,0-1.27,0.01-1.91,0c-0.57-0.01-0.96-0.37-0.95-0.84c0.01-0.48,0.39-0.81,0.97-0.82
		c1.27-0.01,2.54-0.01,3.81,0c0.62,0,1.03,0.35,1.02,0.84c-0.02,0.51-0.4,0.82-1.04,0.82C89.6,20.29,88.96,20.29,88.32,20.29z"/>
	<path class="st0" d="M64.12,18.62c0.63,0,1.27-0.01,1.9,0c0.57,0.01,0.95,0.35,0.95,0.83c-0.01,0.46-0.37,0.82-0.9,0.83
		c-1.33,0.01-2.65,0.01-3.98,0c-0.55-0.01-0.87-0.34-0.87-0.84c0-0.49,0.34-0.81,0.89-0.82C62.77,18.61,63.44,18.62,64.12,18.62z"/>
	<path class="st0" d="M84.24,7.09C84.12,7.37,84.08,7.52,84,7.66c-0.64,1.11-1.28,2.23-1.93,3.34c-0.33,0.56-0.77,0.72-1.22,0.47
		c-0.44-0.25-0.55-0.74-0.23-1.29c0.64-1.12,1.28-2.23,1.94-3.33c0.22-0.37,0.56-0.62,0.99-0.41C83.82,6.57,84.02,6.88,84.24,7.09z"
		/>
	<path class="st0" d="M72.08,10.87c-0.2,0.21-0.37,0.56-0.6,0.6c-0.3,0.05-0.8-0.03-0.93-0.24c-0.78-1.22-1.48-2.48-2.18-3.75
		c-0.21-0.39-0.02-0.72,0.33-0.96c0.35-0.24,0.75-0.26,0.96,0.08c0.8,1.29,1.55,2.62,2.31,3.94c0.04,0.06,0.02,0.16,0.02,0.23
		C72.02,10.81,72.05,10.84,72.08,10.87z"/>
	<path class="st0" d="M84.2,31.87c-0.18,0.17-0.38,0.52-0.63,0.57c-0.29,0.05-0.78-0.06-0.92-0.28c-0.75-1.17-1.43-2.38-2.11-3.59
		c-0.24-0.43-0.15-0.85,0.32-1.12c0.44-0.26,0.84-0.14,1.08,0.27c0.73,1.21,1.42,2.43,2.12,3.66C84.12,31.48,84.13,31.6,84.2,31.87z
		"/>
	<path class="st0" d="M89.35,12.49c-0.07,0.12-0.16,0.41-0.35,0.52c-1.23,0.73-2.48,1.41-3.72,2.11c-0.47,0.27-0.82,0.08-1.04-0.32
		c-0.25-0.44-0.12-0.86,0.32-1.12c0.96-0.56,1.93-1.11,2.89-1.66c0.22-0.13,0.44-0.28,0.67-0.38C88.71,11.4,89.35,11.78,89.35,12.49
		z"/>
	<path class="st0" d="M68.3,14.26c-0.01,0.78-0.63,1.19-1.17,0.89c-1.23-0.68-2.44-1.4-3.65-2.11c-0.44-0.26-0.46-0.69-0.24-1.09
		c0.24-0.44,0.69-0.51,1.09-0.3c1.22,0.66,2.42,1.36,3.6,2.08C68.13,13.85,68.22,14.15,68.3,14.26z"/>
	<path class="st0" d="M89.34,26.39c-0.01,0.74-0.6,1.15-1.14,0.87c-1.26-0.67-2.49-1.39-3.71-2.12c-0.4-0.24-0.47-0.65-0.25-1.04
		c0.23-0.39,0.62-0.6,1.06-0.35c1.23,0.68,2.45,1.38,3.65,2.11C89.16,25.98,89.26,26.28,89.34,26.39z"/>
	<path class="st0" d="M67.62,23.61c0.19,0.18,0.54,0.36,0.61,0.62c0.07,0.26-0.06,0.73-0.27,0.86c-1.2,0.76-2.44,1.47-3.69,2.16
		c-0.42,0.23-0.85,0.11-1.07-0.32c-0.19-0.37-0.17-0.8,0.25-1.05c1.23-0.73,2.46-1.43,3.7-2.14C67.25,23.69,67.38,23.68,67.62,23.61
		z"/>
	<path class="st0" d="M72.06,28.02c-0.12,0.31-0.18,0.51-0.27,0.67c-0.62,1.11-1.24,2.21-1.88,3.31c-0.3,0.51-0.71,0.65-1.14,0.41
		c-0.43-0.24-0.59-0.76-0.32-1.22c0.66-1.13,1.3-2.27,2.03-3.36c0.16-0.25,0.62-0.43,0.93-0.41C71.64,27.44,71.85,27.82,72.06,28.02
		z"/>
	<path class="st0" d="M77.03,31.63c0,0.63,0.01,1.27,0,1.9c-0.01,0.57-0.32,0.9-0.8,0.9c-0.47,0-0.8-0.34-0.8-0.9
		c0-1.33,0-2.65,0.02-3.98c0.01-0.52,0.35-0.93,0.77-0.87c0.48,0.06,0.79,0.34,0.78,0.87c0,0.69,0,1.38,0,2.08
		C77,31.63,77.01,31.63,77.03,31.63z"/>
	<path class="st0" d="M77.03,7.35c0,0.65,0.01,1.31,0,1.96c-0.02,0.57-0.34,0.9-0.82,0.9c-0.47-0.01-0.78-0.34-0.79-0.92
		c-0.01-1.31-0.01-2.62,0-3.92c0.01-0.56,0.35-0.91,0.81-0.9c0.48,0.01,0.78,0.35,0.79,0.92C77.03,6.05,77.02,6.7,77.03,7.35
		C77.03,7.35,77.03,7.35,77.03,7.35z"/>
</g>
</svg>
