<?xml version="1.0" encoding="utf-8"?>
<!-- Generator: Adobe Illustrator 27.5.0, SVG Export Plug-In . SVG Version: 6.00 Build 0)  -->
<svg version="1.1" id="Layer_1" xmlns="http://www.w3.org/2000/svg" xmlns:xlink="http://www.w3.org/1999/xlink" x="0px" y="0px"
	 viewBox="0 0 100 100" style="enable-background:new 0 0 100 100;" xml:space="preserve">
<style type="text/css">
	.st0{fill:#6096B4;}
</style>
<g>
	<path class="st0" d="M95,49c-0.08,0.16-0.21,0.31-0.22,0.47c-0.24,3.01-1.29,5.74-2.89,8.26c-2.12,3.33-4.98,5.75-8.83,6.87
		c-5.36,1.56-10.61-1.36-12.57-6.7c-1.14-3.09-1.28-6.25-0.5-9.44c1.21-4.96,3.77-9,8.21-11.69c1.91-1.16,4.01-1.89,6.26-1.77
		c4.62,0.25,7.71,2.7,9.43,6.94c0.54,1.33,0.96,2.7,0.75,4.18c-0.01,0.05,0.03,0.11,0.07,0.27c0.12-0.4,0.21-0.69,0.3-0.98
		C95,46.6,95,47.8,95,49z"/>
	<path class="st0" d="M18.75,81.58c0.1-3.65,1.52-7.07,4.18-9.93c1.53-1.65,3.16-3.21,4.79-4.75c3.8-3.58,6.13-7.96,7.15-13.06
		c0.51-2.56,1.28-5.04,2.68-7.27c2.99-4.73,7.34-7.02,12.89-6.86c5.96,0.17,10.21,3.11,12.85,8.43c1.01,2.03,1.5,4.22,1.99,6.42
		c0.83,3.75,2.33,7.2,4.89,10.09c1.6,1.81,3.37,3.46,5.09,5.15c1.72,1.69,3.34,3.45,4.38,5.66c1.13,2.41,1.75,4.92,1.47,7.6
		c-0.29,2.67-1.68,4.67-3.88,6.11c-1.94,1.28-4.12,1.89-6.42,2.15c-1.77,0.2-3.49-0.01-5.2-0.4c-2.54-0.58-5.11-0.89-7.71-1.09
		c-3.24-0.25-6.48-0.53-9.73-0.39c-2.23,0.1-4.46,0.24-6.68,0.48c-2.25,0.23-4.48,0.6-6.73,0.91c-1.45,0.2-2.89,0.56-4.34,0.56
		c-2.85,0-5.55-0.72-7.92-2.36C20.01,87.31,18.76,84.9,18.75,81.58z"/>
	<path class="st0" d="M77.85,21.91c-0.05,4.65-1.54,8.79-4.55,12.34c-1.77,2.09-3.97,3.61-6.63,4.35
		c-5.06,1.41-9.48-1.06-11.78-5.11c-1.26-2.21-1.87-4.6-1.94-7.15c-0.12-4.68,1.26-8.87,4.16-12.53c1.95-2.47,4.43-4.21,7.55-4.94
		c4.22-0.98,8.51,0.8,10.93,4.72C77.16,16.13,77.91,18.91,77.85,21.91z"/>
	<path class="st0" d="M30.44,51.66c-0.03,3.8-0.74,6.7-2.61,9.24c-1.67,2.26-3.9,3.58-6.67,4c-3,0.46-5.68-0.45-8.13-2.08
		c-4.22-2.81-6.59-6.87-7.64-11.75c-0.68-3.18-0.49-6.33,0.77-9.36c1.4-3.34,3.77-5.6,7.35-6.46c2.85-0.69,5.49-0.01,7.97,1.37
		c3.63,2.02,6.02,5.13,7.57,8.93C29.95,47.73,30.42,50,30.44,51.66z"/>
	<path class="st0" d="M47,25.5c0.04,3.25-0.68,6.08-2.34,8.62c-2.09,3.21-5.07,4.93-8.92,4.86c-2.67-0.05-5.01-1.13-7.06-2.81
		c-3.53-2.88-5.52-6.67-6.3-11.09c-0.64-3.62-0.29-7.14,1.4-10.45c1.34-2.61,3.32-4.54,6.13-5.49c2.94-0.99,5.77-0.58,8.43,0.91
		c4.28,2.39,6.74,6.17,8.03,10.8C46.81,22.44,47.09,24.06,47,25.5z"/>
</g>
</svg>
