<?xml version="1.0" encoding="utf-8"?>
<!-- Generator: Adobe Illustrator 27.5.0, SVG Export Plug-In . SVG Version: 6.00 Build 0)  -->
<svg version="1.1" id="Layer_1" xmlns="http://www.w3.org/2000/svg" xmlns:xlink="http://www.w3.org/1999/xlink" x="0px" y="0px"
	 viewBox="0 0 12.7 10.9" style="enable-background:new 0 0 12.7 10.9;" xml:space="preserve">
<style type="text/css">
	.st0{fill:#6197B5;stroke:#6197B5;stroke-width:0.5;stroke-miterlimit:10;}
</style>
<g>
	<path class="st0" d="M6.4,9.3c-1.6,0-3.2,0-4.8,0c-0.6,0-1-0.5-1-1.1c0-2,0-4,0-6.1C0.5,1.5,1,1,1.5,1C4,1,6.5,1,8.9,1
		c0.8,0,1.5,0,2.3,0c0.6,0,1,0.6,1,1.1c0,2,0,4.1,0,6.1c0,0.6-0.4,1.1-1,1.1C9.6,9.3,8,9.3,6.4,9.3C6.4,9.3,6.4,9.3,6.4,9.3z
		 M1.3,1.5C1.3,1.5,1.3,1.6,1.3,1.5C1.7,1.9,2,2.3,2.3,2.6C3.1,3.4,3.9,4.2,4.7,5C5,5.4,5.4,5.7,5.7,6.1c0.3,0.3,0.8,0.4,1.2,0.1
		c0.2-0.1,0.3-0.3,0.5-0.5C8.3,4.8,9.2,3.9,10,3c0.4-0.4,0.9-0.9,1.3-1.3c0.1-0.1,0.1-0.1,0.2-0.2c0,0,0,0-0.1,0
		c-0.1-0.1-0.2,0-0.4,0c-1.7,0-3.4,0-5.1,0c-1.5,0-3,0-4.4,0C1.5,1.5,1.4,1.5,1.3,1.5z M1.3,8.9c0.1,0.1,0.2,0.1,0.3,0.1
		c3.1,0,6.3,0,9.4,0c0.1,0,0.2,0,0.3,0c0.1,0,0.1,0,0.2-0.1c0,0,0,0,0,0c-0.2-0.2-0.3-0.3-0.5-0.5C10.5,7.9,10.1,7.4,9.7,7
		c-0.5-0.5-1-1-1.4-1.5c0,0-0.1,0-0.1,0C7.8,5.8,7.6,6.1,7.3,6.4C6.8,6.9,6,6.9,5.5,6.4C5.2,6.1,4.9,5.8,4.6,5.5c0,0-0.1,0-0.1,0
		C4.1,5.9,3.8,6.3,3.4,6.7C2.8,7.3,2.1,8,1.5,8.6C1.4,8.7,1.4,8.8,1.3,8.9z M1,1.8C0.9,1.9,0.9,2.1,0.9,2.2c0,1.9,0,3.7,0,5.6
		c0,0.2,0,0.3,0,0.5c0,0.1,0,0.2,0.1,0.3c1.1-1.1,2.2-2.3,3.3-3.4C3.2,4.1,2.1,2.9,1,1.8z M11.8,1.8c-1.1,1.1-2.2,2.3-3.3,3.4
		c1.1,1.1,2.2,2.3,3.3,3.4c0,0,0-0.1,0-0.1c0-0.1,0-0.2,0-0.3c0-1.2,0-2.4,0-3.6c0-0.8,0-1.7,0-2.5C11.8,2,11.8,1.9,11.8,1.8z"/>
</g>
</svg>
