<?xml version="1.0" encoding="utf-8"?>
<!-- Generator: Adobe Illustrator 27.5.0, SVG Export Plug-In . SVG Version: 6.00 Build 0)  -->
<svg version="1.1" id="Layer_1" xmlns="http://www.w3.org/2000/svg" xmlns:xlink="http://www.w3.org/1999/xlink" x="0px" y="0px"
	 viewBox="0 0 100 100" style="enable-background:new 0 0 100 100;" xml:space="preserve">
<style type="text/css">
	.st0{fill:#6096B4;}
	.st1{fill:#FFFFFF;}
</style>
<g>
	<path class="st0" d="M83.01,95c-22.07,0-44.04,0-66.02,0c0-0.65,0-1.29,0-1.92c0-17.31,0-34.61,0-51.92c0-7.87,0-15.74-0.01-23.61
		c0-0.47,0.09-0.61,0.62-0.6c2.87,0.04,5.73,0.02,8.6,0.02c4.93,0,9.86,0,14.8,0.01c0.37,0,0.68,0.04,0.49-0.53
		C39.97,11.9,42.86,6.32,48.02,5.2c3.69-0.8,7.66,0.85,9.43,3.77c1.48,2.44,1.94,5.05,0.96,7.9c0.24,0.03,0.45,0.09,0.67,0.09
		c7.75,0,15.49,0,23.24,0c0.69,0,0.7,0,0.71,0.7c0.01,0.61-0.01,1.21-0.01,1.82c0,24.11,0,48.22,0,72.33
		C83.01,92.85,83.01,93.9,83.01,95z M77.15,56C77.15,56,77.15,56,77.15,56c0-10.86,0-21.72,0.02-32.58c0-0.52-0.19-0.62-0.65-0.62
		c-2.65,0.01-5.31,0.02-7.96-0.01c-0.48-0.01-0.63,0.17-0.76,0.59c-0.68,2.22-2.06,3.86-4.2,4.84c-1.34,0.61-2.76,0.62-4.18,0.62
		c-6.64,0-13.28-0.01-19.92-0.02c-0.46,0-0.93-0.02-1.38-0.11c-3.05-0.65-4.97-2.52-5.84-5.5c-0.08-0.28-0.21-0.41-0.52-0.41
		c-2.81,0.01-5.63,0.01-8.44,0c-0.35,0-0.48,0.13-0.47,0.47c0.01,0.66,0,1.32,0,1.98c0,21.08,0,42.16-0.02,63.24
		c0,0.55,0.19,0.62,0.67,0.62c17.66-0.01,35.32-0.01,52.98,0c0.55,0,0.68-0.16,0.68-0.69C77.15,77.62,77.15,66.81,77.15,56z
		 M50.06,10.83c-1.73-0.02-3.13,1.32-3.16,3.02c-0.03,1.58,1.45,3.07,3.11,3.01c2.03-0.07,2.96-1.3,3.07-3.01
		C53.18,12.27,51.7,10.85,50.06,10.83z"/>
	<path class="st1" d="M77.15,56c0,10.81,0,21.61,0.01,32.42c0,0.53-0.12,0.69-0.68,0.69c-17.66-0.02-35.32-0.02-52.98,0
		c-0.48,0-0.67-0.07-0.67-0.62c0.02-21.08,0.02-42.16,0.02-63.24c0-0.66,0.01-1.32,0-1.98c-0.01-0.34,0.12-0.47,0.47-0.47
		c2.81,0.01,5.63,0.01,8.44,0c0.31,0,0.44,0.13,0.52,0.41c0.87,2.98,2.79,4.85,5.84,5.5c0.45,0.1,0.92,0.11,1.38,0.11
		c6.64,0.01,13.28,0.02,19.92,0.02c1.42,0,2.85-0.01,4.18-0.62c2.14-0.98,3.51-2.61,4.2-4.84c0.13-0.42,0.28-0.6,0.76-0.59
		c2.65,0.03,5.31,0.02,7.96,0.01c0.46,0,0.66,0.1,0.65,0.62C77.15,34.28,77.16,45.14,77.15,56C77.15,56,77.15,56,77.15,56z
		 M60.51,79.96C60.51,79.96,60.51,79.96,60.51,79.96c4.31,0,8.61-0.01,12.92,0.01c0.45,0,0.58-0.13,0.57-0.57
		C73.98,78.05,74,76.69,74,75.34c0-1.29,0-1.3-1.32-1.29c-7.58,0-15.16,0.01-22.74,0.01c-0.82,0-1.64,0.02-2.45,0.02
		c-0.33,0-0.45,0.13-0.44,0.49c0.02,1.6,0.03,3.2,0.01,4.8c-0.01,0.47,0.14,0.6,0.61,0.6C51.93,79.96,56.22,79.96,60.51,79.96z
		 M60.57,38.02c-4.33,0-8.65,0.01-12.98-0.01c-0.42,0-0.56,0.12-0.56,0.54c0.02,1.57,0.02,3.13-0.01,4.7
		c-0.01,0.46,0.13,0.62,0.6,0.62c8.62-0.01,17.23-0.01,25.85,0c0.39,0,0.53-0.1,0.52-0.51c-0.02-1.58-0.03-3.17,0-4.75
		c0.01-0.49-0.16-0.6-0.62-0.59C69.12,38.03,64.85,38.02,60.57,38.02z M60.52,61.91C60.52,61.91,60.52,61.91,60.52,61.91
		c4.31,0,8.61-0.01,12.92,0c0.34,0,0.57-0.01,0.57-0.47c-0.02-1.64-0.02-3.27,0-4.91c0-0.4-0.17-0.47-0.51-0.47
		c-8.61,0.01-17.22,0.01-25.83,0c-0.47,0-0.62,0.15-0.62,0.62c0.02,1.53,0.03,3.06-0.01,4.59c-0.01,0.53,0.17,0.65,0.68,0.65
		C51.98,61.9,56.25,61.91,60.52,61.91z M33.96,66.18c0.04-0.04,0.09-0.08,0.13-0.12c0.05-0.02,0.1-0.03,0.14-0.07
		c3.51-3.53,7.02-7.07,10.54-10.6c0.27-0.27,0.19-0.42-0.04-0.65c-1.17-1.17-2.32-2.36-3.47-3.55c-0.22-0.23-0.35-0.22-0.56-0.01
		c-2.09,2.12-4.19,4.22-6.27,6.34c-0.25,0.25-0.4,0.2-0.61-0.01c-1.05-1.07-2.13-2.1-3.15-3.2c-0.37-0.39-0.56-0.38-0.92-0.01
		c-1.05,1.11-2.12,2.21-3.22,3.28c-0.6,0.59-0.61,0.46,0.01,1.08c1.73,1.72,3.47,3.43,5.19,5.16C32.5,64.59,33.22,65.39,33.96,66.18
		z M26.06,40.08c0.08,0.1,0.14,0.19,0.21,0.26c2.35,2.33,4.7,4.66,7.05,6.99c0.77,0.77,0.76,0.76,1.51,0.01
		c2.72-2.74,5.45-5.47,8.18-8.2c0.69-0.69,1.43-1.32,2.13-1.97c-1.51-1.48-2.89-2.83-4.28-4.19c0.03-0.02,0-0.01-0.03,0.02
		c-2.12,2.13-4.24,4.26-6.34,6.41c-0.31,0.32-0.5,0.34-0.81,0.02c-0.75-0.81-1.53-1.59-2.29-2.38c-0.38-0.39-0.77-0.77-1.08-1.09
		C28.88,37.35,27.48,38.71,26.06,40.08z M45.09,73.14c-1.32-1.37-2.59-2.68-3.88-3.98c-0.07-0.07-0.38-0.05-0.46,0.04
		c-2.09,2.09-4.17,4.18-6.24,6.29c-0.29,0.3-0.46,0.33-0.77,0.01c-1.06-1.1-2.15-2.18-3.23-3.26c-0.09-0.09-0.21-0.17-0.43-0.34
		c-0.11,0.17-0.19,0.34-0.32,0.47c-1.07,1.09-2.15,2.18-3.23,3.26c-0.49,0.49-0.5,0.48-0.01,0.98c1.63,1.62,3.26,3.23,4.89,4.85
		c0.89,0.88,1.79,1.76,2.64,2.6C37.73,80.43,41.39,76.8,45.09,73.14z"/>
	<path class="st1" d="M50.06,10.83c1.64,0.01,3.12,1.44,3.02,3.02c-0.11,1.71-1.03,2.94-3.07,3.01c-1.66,0.06-3.14-1.43-3.11-3.01
		C46.93,12.15,48.32,10.82,50.06,10.83z"/>
	<path class="st0" d="M60.51,79.96c-4.29,0-8.58-0.01-12.87,0.01c-0.47,0-0.61-0.13-0.61-0.6c0.02-1.6,0.01-3.2-0.01-4.8
		c-0.01-0.35,0.11-0.49,0.44-0.49c0.82,0,1.64-0.02,2.45-0.02c7.58-0.01,15.16-0.01,22.74-0.01c1.33,0,1.33,0,1.32,1.29
		c0,1.35-0.02,2.71,0.01,4.06c0.01,0.44-0.13,0.57-0.57,0.57C69.13,79.95,64.82,79.96,60.51,79.96
		C60.51,79.96,60.51,79.96,60.51,79.96z"/>
	<path class="st0" d="M60.57,38.02c4.27,0,8.54,0.01,12.82-0.01c0.46,0,0.62,0.11,0.62,0.59c-0.03,1.58-0.03,3.17,0,4.75
		c0.01,0.41-0.13,0.51-0.52,0.51c-8.62-0.01-17.23-0.01-25.85,0c-0.47,0-0.61-0.16-0.6-0.62c0.02-1.57,0.02-3.13,0.01-4.7
		c0-0.42,0.14-0.54,0.56-0.54C51.92,38.03,56.25,38.02,60.57,38.02z"/>
	<path class="st0" d="M60.52,61.91c-4.27,0-8.54-0.01-12.81,0.01c-0.5,0-0.69-0.12-0.68-0.65c0.03-1.53,0.03-3.06,0.01-4.59
		c-0.01-0.46,0.15-0.62,0.62-0.62c8.61,0.01,17.22,0.01,25.83,0c0.35,0,0.52,0.07,0.51,0.47c-0.02,1.64-0.02,3.27,0,4.91
		c0.01,0.45-0.23,0.47-0.57,0.47C69.13,61.9,64.83,61.9,60.52,61.91C60.52,61.91,60.52,61.91,60.52,61.91z"/>
	<path class="st0" d="M33.96,66.18c-0.74-0.79-1.46-1.6-2.22-2.36c-1.72-1.73-3.46-3.44-5.19-5.16c-0.62-0.62-0.61-0.49-0.01-1.08
		c1.09-1.07,2.16-2.17,3.22-3.28c0.35-0.37,0.55-0.38,0.92,0.01c1.02,1.09,2.1,2.13,3.15,3.2c0.21,0.22,0.36,0.27,0.61,0.01
		c2.08-2.12,4.19-4.22,6.27-6.34c0.21-0.22,0.34-0.22,0.56,0.01c1.15,1.19,2.3,2.38,3.47,3.55c0.23,0.23,0.31,0.38,0.04,0.65
		c-3.52,3.53-7.03,7.07-10.54,10.6c-0.03,0.03-0.09,0.05-0.14,0.07C34.05,66.11,34.01,66.14,33.96,66.18z"/>
	<path class="st0" d="M26.06,40.08c1.42-1.37,2.82-2.72,4.25-4.11c0.31,0.31,0.7,0.7,1.08,1.09c0.77,0.79,1.54,1.58,2.29,2.38
		c0.3,0.33,0.49,0.31,0.81-0.02c2.1-2.15,4.22-4.28,6.34-6.41c0.02-0.02,0.06-0.04,0.03-0.02c1.39,1.36,2.77,2.71,4.28,4.19
		c-0.7,0.64-1.44,1.28-2.13,1.97c-2.74,2.72-5.46,5.46-8.18,8.2c-0.75,0.75-0.74,0.76-1.51-0.01c-2.35-2.33-4.7-4.66-7.05-6.99
		C26.2,40.27,26.14,40.18,26.06,40.08z"/>
	<path class="st0" d="M45.09,73.14c-3.7,3.66-7.36,7.28-11.02,10.91c-0.85-0.83-1.75-1.71-2.64-2.6c-1.63-1.61-3.26-3.23-4.89-4.85
		c-0.5-0.49-0.48-0.49,0.01-0.98c1.08-1.08,2.16-2.17,3.23-3.26c0.12-0.13,0.2-0.3,0.32-0.47c0.22,0.17,0.34,0.24,0.43,0.34
		c1.08,1.08,2.17,2.16,3.23,3.26c0.3,0.32,0.48,0.28,0.77-0.01c2.07-2.11,4.15-4.2,6.24-6.29c0.09-0.09,0.39-0.11,0.46-0.04
		C42.5,70.46,43.77,71.78,45.09,73.14z"/>
</g>
</svg>
