<?xml version="1.0" encoding="utf-8"?>
<!-- Generator: Adobe Illustrator 27.5.0, SVG Export Plug-In . SVG Version: 6.00 Build 0)  -->
<svg version="1.1" id="Layer_1" xmlns="http://www.w3.org/2000/svg" xmlns:xlink="http://www.w3.org/1999/xlink" x="0px" y="0px"
	 viewBox="0 0 50 50" style="enable-background:new 0 0 50 50;" xml:space="preserve">
<style type="text/css">
	.st0{fill:#204498;}
	.st1{fill:#FFFFFF;}
</style>
<g>
	<path class="st0" d="M25.46,1.51c13.34,0.3,23.4,11.29,23.04,24.12C48.12,38.85,37.24,48.66,24.81,48.5
		C11.09,48.32,1.32,37.11,1.5,24.71C1.7,11.25,12.84,1.2,25.46,1.51z M27.29,21.48c0-0.22,0-0.43,0-0.63c0.02-1.39,0-2.78,0.07-4.17
		c0.07-1.37,0.91-2.1,2.34-2.14c1.32-0.03,2.63-0.01,3.95,0c0.11,0,0.22,0,0.34,0c-0.01-0.14-0.03-0.25-0.03-0.36
		c0.01-1.67,0.01-3.35,0.03-5.02c0-0.14-0.02-0.2-0.18-0.2c-1.61,0-3.21-0.01-4.82-0.01c-1.08,0-2.16-0.01-3.21,0.31
		c-1.05,0.32-1.92,0.88-2.59,1.75c-0.79,1.03-1.09,2.23-1.28,3.47c-0.18,1.19-0.16,2.4-0.15,3.6c0.01,1.02,0.01,2.05,0.01,3.07
		c0,0.14,0.03,0.3-0.22,0.3c-1.74,0.01-3.48,0.02-5.21,0.04c-0.09,0-0.18,0.01-0.27,0.01c-0.01,0.07-0.01,0.11-0.01,0.14
		c0,1.65,0,3.31,0,4.96c0,0.37,0.06,0.43,0.45,0.43c1.17,0,2.35-0.01,3.52-0.01c0.47,0,0.94,0.04,1.41-0.01
		c0.3-0.03,0.34,0.08,0.34,0.32c-0.01,1.46,0,2.91,0,4.37c0,3.68,0,7.37,0,11.05c0,0.24,0.12,0.25,0.3,0.25
		c1.58-0.01,3.16-0.01,4.74-0.01c0.51,0,0.51,0.13,0.51-0.52c0-3.81,0-7.61,0-11.42c0-1.25,0-2.5,0-3.75c0-0.16,0-0.29,0.23-0.29
		c1.17,0.01,2.33,0.01,3.5,0.01c0.48,0,0.96,0,1.44,0c0.25,0,0.38-0.1,0.41-0.38c0.18-1.27,0.37-2.54,0.56-3.82
		c0.07-0.45,0.15-0.9,0.23-1.38C31.54,21.48,29.44,21.48,27.29,21.48z"/>
	<path class="st1" d="M27.29,21.48c2.14,0,4.25,0,6.38,0c-0.08,0.48-0.16,0.93-0.23,1.38c-0.19,1.27-0.39,2.54-0.56,3.82
		c-0.04,0.27-0.16,0.38-0.41,0.38c-0.48,0-0.96,0-1.44,0c-1.17,0-2.33,0-3.5-0.01c-0.23,0-0.23,0.12-0.23,0.29c0,1.25,0,2.5,0,3.75
		c0,3.81,0,7.61,0,11.42c0,0.64,0,0.51-0.51,0.52c-1.58,0-3.16,0.01-4.74,0.01c-0.18,0-0.3,0-0.3-0.25c0.01-3.68,0-7.37,0-11.05
		c0-1.46,0-2.91,0-4.37c0-0.24-0.04-0.35-0.34-0.32c-0.47,0.04-0.94,0.01-1.41,0.01c-1.17,0-2.35,0-3.52,0.01
		c-0.38,0-0.45-0.06-0.45-0.43c0-1.65,0-3.31,0-4.96c0-0.04,0.01-0.07,0.01-0.14c0.09,0,0.18-0.01,0.27-0.01
		c1.74-0.02,3.48-0.03,5.21-0.04c0.25,0,0.22-0.16,0.22-0.3c0-1.02,0-2.05-0.01-3.07c-0.01-1.2-0.03-2.41,0.15-3.6
		c0.19-1.25,0.49-2.45,1.28-3.47c0.67-0.87,1.54-1.43,2.59-1.75c1.05-0.32,2.13-0.31,3.21-0.31c1.61,0,3.21,0.01,4.82,0.01
		c0.16,0,0.18,0.06,0.18,0.2c-0.01,1.67-0.02,3.34-0.03,5.02c0,0.11,0.02,0.22,0.03,0.36c-0.12,0-0.23,0-0.34,0
		c-1.32,0-2.63-0.03-3.95,0c-1.43,0.03-2.27,0.76-2.34,2.14c-0.07,1.39-0.05,2.78-0.07,4.17C27.29,21.06,27.29,21.26,27.29,21.48z"
		/>
</g>
</svg>
