<?xml version="1.0" encoding="utf-8"?>
<!-- Generator: Adobe Illustrator 27.5.0, SVG Export Plug-In . SVG Version: 6.00 Build 0)  -->
<svg version="1.1" id="Layer_1" xmlns="http://www.w3.org/2000/svg" xmlns:xlink="http://www.w3.org/1999/xlink" x="0px" y="0px"
	 viewBox="0 0 100 100" style="enable-background:new 0 0 100 100;" xml:space="preserve">
<style type="text/css">
	.st0{fill:#6096B4;}
</style>
<g>
	<path class="st0" d="M5,91.59c0-19.3,0-38.6,0-57.9c0.07-0.15,0.18-0.29,0.21-0.44c0.26-1.32,1.03-2.23,2.18-2.89
		c1.37-0.78,2.73-1.59,4.1-2.39C19.96,23,28.43,18.03,36.9,13.07c3.63-2.13,7.27-4.26,10.9-6.39c1.51-0.88,2.99-0.84,4.49,0.04
		c3.77,2.23,7.55,4.44,11.32,6.65c9.58,5.61,19.15,11.24,28.75,16.82C94.2,31.25,95,32.77,95,34.82c0,18.63,0,37.27,0,55.9
		c0,0.12,0.01,0.23,0,0.35c-0.14,1.64-1.06,2.8-2.64,2.84c-1.51,0.04-3.03,0.08-4.55,0.03c-1.52-0.06-2.41-0.89-2.71-2.38
		C85.03,91.23,85,90.89,85,90.56c0-15.9,0-31.8,0-47.7c0-0.73-0.24-1-0.97-1.03c-0.65-0.03-1.3-0.03-1.95-0.03
		c-21.82,0-43.63-0.01-65.45-0.01c-0.23,0-0.47,0-0.7,0.02C15.19,41.9,15,42.12,15,42.87c0,15.83,0,31.67,0,47.5
		c0,0.17,0.01,0.33,0,0.5c-0.08,1.5-0.83,3.01-2.83,3.05c-1.55,0.03-3.1,0.04-4.65-0.03c-1.16-0.05-1.96-0.67-2.31-1.81
		C5.17,91.91,5.07,91.75,5,91.59z"/>
	<path class="st0" d="M49.95,84c-5.4,0-10.8,0-16.2-0.01c-0.38,0-0.48,0.13-0.49,0.49c-0.02,0.9-0.03,1.8-0.17,2.69
		c-0.32,2.03-2.48,3.54-4.11,3.44c-0.51-0.03-1.04-0.03-1.55,0.01c-2.31,0.2-4.65-1.77-4.64-4.49c0.01-2.47-0.04-4.93-0.01-7.4
		c0.03-2.23,0.04-4.47,0.21-6.69c0.19-2.32,0.7-4.6,1.5-6.8c0.14-0.4,0.1-0.56-0.34-0.71c-1.9-0.65-3.04-2.51-2.75-4.47
		c0.12-0.82,0.54-1.52,1.24-1.97c0.91-0.59,1.88-0.91,2.98-0.53c0.42,0.15,0.88,0.21,1.29,0.37c0.37,0.14,0.53,0.04,0.67-0.32
		c0.63-1.61,1.22-3.24,1.95-4.81c1.68-3.63,4.58-5.62,8.57-5.67c7.98-0.09,15.96-0.13,23.94,0.01c4.09,0.07,6.95,2.29,8.55,6.07
		c0.61,1.44,1.19,2.89,1.77,4.34c0.15,0.39,0.32,0.52,0.74,0.36c0.46-0.18,0.95-0.29,1.44-0.4c1.28-0.31,2.41,0.07,3.26,1.01
		c0.91,1.01,1.05,2.24,0.58,3.51c-0.47,1.27-1.41,2.08-2.66,2.54c-0.36,0.13-0.39,0.29-0.28,0.63c1.09,3.38,1.72,6.84,1.71,10.4
		c-0.01,3.48,0.01,6.97-0.02,10.45c-0.02,2.27-1.3,4.03-3.41,4.45c-1.34,0.27-2.76,0.36-4.09-0.13c-1.83-0.66-2.78-2.05-2.93-3.97
		c-0.05-0.66-0.05-1.33-0.06-2c0-0.3-0.1-0.4-0.41-0.4C60.81,84.01,55.38,84.01,49.95,84z M49.99,65.28c0-0.01,0-0.03,0-0.04
		c5.13,0,10.26,0,15.4,0c0.77,0,1.53,0.04,2.3,0.02c1.96-0.04,2.94-1.45,2.27-3.29c-0.17-0.47-0.37-0.93-0.56-1.39
		c-1.06-2.57-2.03-5.17-3.21-7.68c-0.93-1.99-2.59-3.12-4.88-3.12c-7.53,0-15.06,0-22.59,0c-2.37,0-4.04,1.16-5,3.26
		c-0.98,2.15-1.82,4.36-2.71,6.54c-0.4,1-0.85,1.99-1.14,3.03c-0.31,1.13,0.29,2.11,1.41,2.46c0.47,0.14,0.98,0.2,1.47,0.2
		C38.49,65.28,44.24,65.28,49.99,65.28z M34.22,78.16c0,0,0-0.01,0-0.01c0.8,0,1.6,0.01,2.4,0c0.5-0.01,1,0.01,1.49-0.06
		c1.08-0.16,1.67-0.87,1.68-1.95c0.01-0.9,0-1.8-0.01-2.7c-0.02-1.15-0.68-1.92-1.82-1.97c-1.63-0.06-3.26-0.03-4.9-0.03
		c-0.9,0-1.8-0.02-2.69,0.05c-0.92,0.08-1.62,0.78-1.67,1.71c-0.06,1.09-0.02,2.2,0.01,3.29c0.01,0.22,0.12,0.45,0.23,0.65
		c0.43,0.78,1.16,1.01,1.98,1.02C32.02,78.17,33.12,78.16,34.22,78.16z M65.69,71.44c0,0.01,0,0.02,0,0.03
		c-1.31,0-2.63-0.06-3.94,0.02c-0.98,0.06-1.58,0.73-1.62,1.71c-0.04,1.06-0.05,2.13-0.02,3.19c0.02,0.75,0.41,1.31,1.12,1.56
		c0.4,0.14,0.84,0.2,1.27,0.21c2.18,0.01,4.36,0,6.54-0.01c1.25-0.01,1.99-0.57,2.09-1.74c0.09-1.07,0.09-2.16,0-3.24
		c-0.09-1.08-0.75-1.67-1.85-1.71C68.09,71.41,66.89,71.44,65.69,71.44z"/>
</g>
</svg>
