<?xml version="1.0" encoding="utf-8"?>
<!-- Generator: Adobe Illustrator 27.5.0, SVG Export Plug-In . SVG Version: 6.00 Build 0)  -->
<svg version="1.1" id="Layer_1" xmlns="http://www.w3.org/2000/svg" xmlns:xlink="http://www.w3.org/1999/xlink" x="0px" y="0px"
	 viewBox="0 0 50 50" style="enable-background:new 0 0 50 50;" xml:space="preserve">
<style type="text/css">
	.st0{fill:#E55B4D;}
	.st1{fill:#F6F3EC;}
	.st2{fill:#B6B4AC;}
	.st3{fill:#E5E2D5;}
	.st4{fill:#FFFEFF;}
	.st5{fill:#B1392F;}
</style>
<g>
	<path class="st0" d="M44.2,38.26c-0.9,1.32-1.9,2.56-3.06,3.65c-1.09,1.03-2.24,2-3.52,2.8c-0.88,0.55-1.8,1.01-2.72,1.48
		c-1.51,0.77-3.1,1.29-4.74,1.68c-0.73,0.18-1.47,0.35-2.22,0.44c-1.41,0.18-2.84,0.21-4.26,0.17c-0.11,0-0.22-0.03-0.33-0.05
		c-0.02,0-0.03,0-0.05,0c-0.46-0.05-0.92-0.1-1.39-0.14c-0.02,0.01-0.04,0.02-0.06,0.03c-0.72-0.15-1.45-0.28-2.17-0.45
		c-1.07-0.24-2.11-0.58-3.13-0.99c-1.27-0.51-2.51-1.09-3.68-1.81c-1.51-0.93-2.9-2.03-4.17-3.28C7.8,40.9,6.96,39.92,6.2,38.87
		c-1.52-2.11-2.63-4.43-3.42-6.89c-0.42-1.29-0.73-2.62-0.85-3.98c-0.05-0.63-0.17-1.25-0.16-1.89c0.01-0.01,0.01-0.02,0-0.04
		c-0.08-0.75-0.05-1.5-0.04-2.25c0,0,0.01-0.01,0.01-0.01c0-0.01-0.01-0.02-0.01-0.03c0.01-0.05,0.02-0.11,0.02-0.16
		c0.01-0.01,0.01-0.03,0-0.05c0.07-1.48,0.29-2.93,0.65-4.36c0.57-2.21,1.42-4.3,2.57-6.27c0.77-1.31,1.67-2.53,2.68-3.66
		c1.64-1.82,3.49-3.38,5.61-4.62C14.46,3.95,15.7,3.38,17,2.92c1.04-0.37,2.09-0.69,3.16-0.91c0.67-0.14,1.35-0.3,2.04-0.34
		c0,0,0.01,0.01,0.01,0.01l0.01-0.02c0.7-0.05,1.41-0.15,2.11-0.16c1.04-0.01,2.07,0,3.11,0.13c1.4,0.18,2.78,0.42,4.13,0.81
		c0.99,0.29,1.96,0.65,2.9,1.07C35.77,4.11,37,4.8,38.17,5.6c0.91,0.62,1.76,1.32,2.57,2.07c0.58,0.54,1.12,1.11,1.65,1.69
		c0.66,0.72,1.25,1.49,1.79,2.3c0.66,1,1.29,2.02,1.8,3.11c0.61,1.3,1.07,2.65,1.46,4.03c0.28,0.99,0.49,2,0.61,3.02
		c0.21,1.68,0.32,3.38,0.13,5.08c-0.02,0.22-0.06,0.44-0.06,0.67c0,0-0.02,0.02-0.02,0.02l0.01,0.02c-0.01,0.07-0.02,0.15-0.03,0.22
		c-0.01,0.01-0.01,0.03,0,0.04c-0.1,0.6-0.18,1.2-0.29,1.79c-0.2,1.11-0.54,2.18-0.9,3.25c-0.33,1-0.79,1.94-1.27,2.87
		c-0.06,0.12-0.11,0.24-0.16,0.36c-0.02,0.03-0.03,0.07-0.05,0.1c0,0,0,0,0,0c-0.01,0.02-0.03,0.03-0.04,0.05
		c-0.02,0.05-0.04,0.11-0.06,0.16c-0.01,0.02-0.03,0.03-0.04,0.05c-0.04,0.07-0.08,0.14-0.13,0.21c-0.02,0.04-0.03,0.07-0.05,0.11
		c-0.28,0.43-0.57,0.86-0.8,1.33C44.23,38.16,44.2,38.2,44.2,38.26z M3.98,29.25c-0.01,0.02,0,0.03,0.01,0.05
		c0,0.04-0.02,0.09-0.01,0.13c0.27,0.95,0.45,1.93,0.8,2.86c0.38,0.99,0.77,1.96,1.31,2.88c0.01,0.02,0.01,0.03,0.02,0.05
		c0.01,0.04,0.03,0.07,0.04,0.11c0.04,0.05,0.07,0.1,0.11,0.15c0.11,0.2,0.22,0.4,0.32,0.6c0.01,0.02,0.03,0.04,0.04,0.06
		c0,0.02,0,0.04,0.01,0.05c0.99,1.6,2.13,3.09,3.5,4.39c1.05,1,2.16,1.91,3.38,2.69c1.45,0.92,2.98,1.67,4.6,2.24
		c1.17,0.41,2.38,0.72,3.61,0.9c0.61,0.09,1.23,0.14,1.84,0.2c0.02,0,0.03,0,0.05-0.02c1.35,0.08,2.69,0.03,4.03-0.13
		c1.27-0.15,2.52-0.41,3.74-0.81c1.32-0.44,2.61-0.97,3.82-1.65c1.61-0.9,3.1-1.98,4.46-3.23c0.86-0.78,1.62-1.66,2.3-2.58
		c0.85-1.15,1.62-2.36,2.25-3.66c0.64-1.33,1.13-2.7,1.51-4.12c0.25-0.93,0.38-1.88,0.55-2.82c0.08-0.44,0.1-0.92,0.09-1.38
		c0-0.01,0.01-0.01,0.01-0.02c0-0.01-0.01-0.03-0.01-0.04c0.01-0.11,0.03-0.23,0.03-0.34c0.03-0.82-0.03-1.64-0.07-2.47
		c-0.05-0.86-0.18-1.7-0.3-2.55c-0.18-1.17-0.54-2.29-0.94-3.4c-0.94-2.65-2.43-4.96-4.29-7.06c-0.93-1.05-2-1.93-3.1-2.78
		c-0.57-0.44-1.18-0.84-1.8-1.21c-1.63-0.96-3.35-1.74-5.18-2.24c-0.95-0.26-1.92-0.47-2.91-0.55c-0.66-0.05-1.32-0.14-1.99-0.21
		c-1.07-0.1-2.14,0.04-3.2,0.12c-0.57,0.05-1.15,0.13-1.71,0.23c-1.29,0.24-2.54,0.61-3.76,1.09c-1.28,0.5-2.5,1.11-3.65,1.86
		c-1.15,0.76-2.23,1.62-3.24,2.56c-0.46,0.43-0.9,0.89-1.31,1.36c-0.8,0.91-1.49,1.91-2.15,2.92c-0.62,0.94-1.1,1.95-1.53,2.97
		c-0.52,1.25-0.93,2.54-1.22,3.87c-0.18,0.81-0.31,1.63-0.39,2.46C3.52,24.2,3.49,25.6,3.65,27C3.73,27.75,3.78,28.51,3.98,29.25z"
		/>
	<path class="st1" d="M44.2,38.26c0-0.06,0.04-0.1,0.1-0.11C44.26,38.19,44.23,38.22,44.2,38.26z"/>
	<path class="st1" d="M45.1,36.82c0.02-0.04,0.03-0.07,0.05-0.11C45.13,36.75,45.12,36.78,45.1,36.82z"/>
	<path class="st1" d="M45.27,36.5c0.01-0.02,0.03-0.03,0.04-0.05C45.35,36.51,45.3,36.49,45.27,36.5z"/>
	<path class="st1" d="M45.42,36.23c0.02-0.03,0.03-0.07,0.05-0.1C45.45,36.17,45.44,36.2,45.42,36.23z"/>
	<path class="st2" d="M48.09,27.86c-0.01-0.01-0.01-0.03,0-0.04c0,0.01,0.01,0.02,0.01,0.03C48.1,27.85,48.09,27.86,48.09,27.86z"/>
	<path class="st2" d="M48.12,27.6l-0.01-0.02c0,0,0.02-0.02,0.02-0.02C48.13,27.57,48.13,27.59,48.12,27.6z"/>
	<path class="st2" d="M1.77,26.06c0.01,0.01,0.01,0.02,0,0.04c0,0-0.02-0.02-0.02-0.02L1.77,26.06z"/>
	<path class="st1" d="M45.37,36.29c0.01-0.02,0.03-0.03,0.04-0.05C45.4,36.25,45.39,36.27,45.37,36.29z"/>
	<path class="st2" d="M1.74,23.77c0,0.01,0.01,0.02,0.01,0.03c0,0-0.01,0.01-0.01,0.01C1.73,23.8,1.73,23.78,1.74,23.77z"/>
	<path class="st2" d="M1.76,23.56c0.01,0.02,0.01,0.03,0,0.05c0-0.01-0.01-0.02-0.01-0.03C1.75,23.57,1.76,23.56,1.76,23.56z"/>
	<path class="st3" d="M21.86,48.32c0.02-0.01,0.04-0.02,0.06-0.03C21.9,48.3,21.88,48.31,21.86,48.32z"/>
	<path class="st2" d="M22.22,1.66l-0.01,0.02c0,0-0.01-0.01-0.01-0.01C22.21,1.65,22.21,1.65,22.22,1.66z"/>
	<path class="st3" d="M23.3,48.43c0.02,0,0.03,0,0.05,0c0,0-0.02,0-0.02,0L23.3,48.43z"/>
	<path class="st4" d="M23.57,46.61c-0.61-0.07-1.23-0.11-1.84-0.2c-1.23-0.18-2.43-0.49-3.61-0.9c-1.62-0.57-3.15-1.32-4.6-2.24
		c-1.22-0.78-2.34-1.69-3.38-2.69c-1.37-1.31-2.51-2.79-3.5-4.39c-0.01-0.01-0.01-0.03-0.01-0.05c-0.01-0.02-0.03-0.04-0.04-0.06
		c-0.11-0.2-0.22-0.4-0.32-0.6c0-0.07-0.01-0.14-0.11-0.15c-0.01-0.04-0.03-0.07-0.04-0.11c0-0.01,0.01-0.02,0.01-0.02
		c-0.01-0.01-0.02-0.02-0.03-0.03c-0.53-0.91-0.93-1.89-1.31-2.88c-0.36-0.93-0.53-1.91-0.8-2.86c-0.01-0.04,0.01-0.09,0.01-0.13
		C3.99,29.3,4,29.29,4,29.29c0-0.01-0.01-0.02-0.02-0.03c-0.19-0.74-0.25-1.5-0.33-2.26c-0.15-1.4-0.13-2.8,0.01-4.19
		c0.08-0.82,0.21-1.64,0.39-2.46c0.29-1.33,0.7-2.62,1.22-3.87c0.43-1.03,0.91-2.03,1.53-2.97c0.67-1.01,1.36-2.01,2.15-2.92
		c0.41-0.47,0.85-0.93,1.31-1.36c1.01-0.94,2.09-1.8,3.24-2.56c1.15-0.75,2.37-1.36,3.65-1.86c1.22-0.48,2.48-0.85,3.76-1.09
		c0.57-0.11,1.14-0.19,1.71-0.23c1.06-0.08,2.13-0.23,3.2-0.12c0.66,0.06,1.33,0.16,1.99,0.21c0.99,0.08,1.96,0.29,2.91,0.55
		c1.83,0.5,3.55,1.28,5.18,2.24c0.62,0.37,1.23,0.77,1.8,1.21c1.1,0.85,2.17,1.74,3.1,2.78c1.85,2.1,3.35,4.41,4.29,7.06
		c0.39,1.11,0.76,2.23,0.94,3.4c0.13,0.84,0.26,1.69,0.3,2.55c0.05,0.82,0.1,1.64,0.07,2.47c0,0.11-0.02,0.23-0.03,0.34
		c0,0.02,0,0.04,0,0.06c0.01,0.46-0.01,0.94-0.09,1.38c-0.16,0.94-0.29,1.89-0.55,2.82c-0.39,1.42-0.87,2.79-1.51,4.12
		c-0.63,1.3-1.4,2.51-2.25,3.66c-0.69,0.93-1.45,1.8-2.3,2.58c-1.36,1.24-2.85,2.33-4.46,3.23c-1.22,0.68-2.5,1.21-3.82,1.65
		c-1.22,0.4-2.47,0.66-3.74,0.81c-1.34,0.16-2.68,0.21-4.03,0.13C23.6,46.6,23.59,46.6,23.57,46.61z M39.78,33.57
		c0.01-0.01,0.02-0.01,0.02-0.02c0-0.01-0.01-0.03-0.01-0.04c0.01-0.36,0.02-0.73,0.02-1.09c0-3.51,0.01-7.02,0-10.53
		c0-1.45-0.03-2.91-0.04-4.36c0-0.34,0.02-0.67,0.01-1.01c-0.02-1.3-1.15-2.22-2.41-2.22c-0.02-0.01-0.03-0.01-0.04,0.01
		c-0.09,0.04-0.18,0.08-0.27,0.13c-0.13-0.12-0.29-0.11-0.45-0.11c-7.61,0-15.21,0-22.82,0c-0.3,0-0.6,0-0.87,0.16
		c-0.32-0.27-0.68-0.19-1.02-0.11c-0.87,0.2-1.69,1.24-1.69,2.37c0.02,5.45,0.01,10.9,0.01,16.35c0,0.64,0.16,1.25,0.56,1.72
		c0.7,0.83,1.66,1.03,2.73,0.83c0.03,0,0.05,0,0.08,0c7.43,0,14.86,0,22.29,0c0.1,0,0.19-0.01,0.29-0.02c0.1,0,0.21,0.01,0.31,0.01
		c0.54,0.02,1.08,0,1.62-0.12C39.15,35.28,39.69,34.62,39.78,33.57z"/>
	<path class="st1" d="M6.15,35.33c0.1,0.01,0.11,0.08,0.11,0.15C6.22,35.43,6.19,35.38,6.15,35.33z"/>
	<path class="st1" d="M3.98,29.25c0.01,0.01,0.02,0.02,0.02,0.03c0,0-0.01,0.01-0.01,0.02C3.97,29.29,3.97,29.27,3.98,29.25z"/>
	<path class="st1" d="M6.09,35.17c0.01,0.01,0.02,0.02,0.03,0.03c0,0-0.01,0.01-0.01,0.02C6.1,35.2,6.1,35.19,6.09,35.17z"/>
	<path class="st3" d="M46.38,26.22c0-0.02,0-0.04,0-0.06c0,0.01,0.01,0.03,0.01,0.04C46.39,26.21,46.38,26.21,46.38,26.22z"/>
	<path class="st1" d="M6.58,36.07c0.01,0.02,0.03,0.04,0.04,0.06C6.61,36.11,6.6,36.09,6.58,36.07z"/>
	<path class="st3" d="M23.57,46.61c0.02-0.01,0.03-0.01,0.05-0.02C23.6,46.61,23.59,46.61,23.57,46.61z"/>
	<path class="st0" d="M13.5,35.64c-1.07,0.2-2.04,0-2.73-0.83c-0.4-0.47-0.56-1.07-0.56-1.72c0.01-5.45,0.01-10.9-0.01-16.35
		c0-1.13,0.82-2.17,1.69-2.37c0.34-0.08,0.71-0.16,1.02,0.11c0.16,0.12,0.33,0.25,0.49,0.37c1.34,1,2.68,1.99,4.02,2.99
		c1.35,1.01,2.69,2.03,4.05,3.02c1.02,0.73,2.03,1.48,3.02,2.25c0.3,0.23,0.55,0.24,0.84,0.02c0.65-0.49,1.32-0.97,1.98-1.46
		c2.55-1.89,5.1-3.77,7.65-5.66c0.7-0.52,1.42-1.02,2.08-1.58c0.09-0.04,0.18-0.08,0.27-0.13c0,0,0.02,0,0.02,0l0.02-0.02
		c1.26,0.01,2.38,0.93,2.41,2.22c0.01,0.34-0.01,0.67-0.01,1.01c-0.06,0.03-0.14,0.04-0.19,0.08c-1.03,0.73-2.06,1.47-3.09,2.21
		c-0.04-0.04-0.08-0.03-0.12,0c-1.12,0.78-2.24,1.55-3.36,2.33c-1.41,0.97-2.82,1.94-4.23,2.91c-1.25,0.87-2.54,1.68-3.76,2.61
		c-0.21-0.04-0.36-0.18-0.53-0.3c-2.22-1.54-4.43-3.08-6.65-4.63c-1.37-0.96-2.75-1.92-4.12-2.87c-0.06-0.04-0.12-0.14-0.2-0.1
		c-0.03,0.02-0.03,0.13-0.03,0.2c0,2.2-0.01,4.4-0.01,6.6C13.49,29.59,13.49,32.62,13.5,35.64z"/>
	<path class="st3" d="M13.5,35.64c0-3.03-0.01-6.05-0.01-9.08c0-2.2,0-4.4,0.01-6.6c0-0.07-0.01-0.18,0.03-0.2
		c0.08-0.04,0.14,0.05,0.2,0.1c1.38,0.96,2.75,1.92,4.12,2.87c2.22,1.54,4.43,3.09,6.65,4.63c0.16,0.11,0.32,0.26,0.53,0.3
		c0.07,0.07,0.13,0.15,0.21,0.2c1.38,0.97,2.77,1.93,4.15,2.9c1.12,0.78,2.24,1.55,3.36,2.32c0.92,0.63,1.84,1.26,2.75,1.89
		c0.26,0.18,0.56,0.32,0.68,0.65c-0.1,0.01-0.19,0.02-0.29,0.02c-7.43,0-14.86,0-22.29,0C13.55,35.65,13.52,35.65,13.5,35.64z
		 M14.35,35.01c-0.18-0.03-0.28,0.09-0.4,0.2c0,0,0.01,0.04,0.02,0.04c0.15-0.01,0.24-0.12,0.35-0.2
		C14.34,35.04,14.34,35.02,14.35,35.01c0.03-0.02,0.07-0.04,0.11-0.06c0.19-0.12,0.38-0.24,0.56-0.37c0.02-0.01,0.03-0.04,0.04-0.06
		c-0.03,0-0.07-0.02-0.09-0.01c-0.2,0.11-0.44,0.18-0.52,0.44C14.42,34.97,14.39,34.99,14.35,35.01z"/>
	<path class="st1" d="M37.05,14.44c-0.66,0.57-1.38,1.07-2.08,1.58c-2.55,1.89-5.1,3.78-7.65,5.66c-0.66,0.49-1.32,0.96-1.98,1.46
		c-0.3,0.22-0.55,0.21-0.84-0.02c-0.99-0.77-2-1.52-3.02-2.25c-1.37-0.98-2.7-2.01-4.05-3.02c-1.34-1-2.68-1.99-4.02-2.99
		c-0.17-0.12-0.33-0.25-0.49-0.37c0.27-0.16,0.57-0.16,0.87-0.16c7.61,0,15.21,0,22.82,0C36.76,14.33,36.92,14.32,37.05,14.44z"/>
	<path class="st2" d="M36.16,35.63c-0.12-0.33-0.42-0.47-0.68-0.65c-0.91-0.64-1.84-1.26-2.75-1.89c-1.12-0.77-2.24-1.55-3.36-2.32
		c-1.39-0.96-2.77-1.93-4.15-2.9c-0.08-0.05-0.14-0.13-0.21-0.2c1.21-0.93,2.51-1.74,3.76-2.61c1.4-0.98,2.82-1.94,4.23-2.91
		c1.12-0.77,2.24-1.55,3.36-2.33c0.04-0.03,0.08-0.03,0.12,0c-0.01,0.07-0.02,0.14-0.02,0.21c0,4.89,0,9.78,0,14.68
		c0,0.31,0.01,0.62,0.01,0.93C36.36,35.63,36.26,35.63,36.16,35.63z"/>
	<path class="st5" d="M36.47,35.64c0-0.31-0.01-0.62-0.01-0.93c0-4.89,0-9.78,0-14.68c0-0.07,0.01-0.14,0.02-0.21
		c1.03-0.74,2.06-1.48,3.09-2.21c0.06-0.04,0.13-0.05,0.19-0.08c0.01,1.45,0.04,2.91,0.04,4.36c0.01,3.51,0,7.02,0,10.53
		c0,0.36-0.02,0.73-0.02,1.09c0,0.02,0,0.04,0,0.06c-0.09,1.05-0.63,1.71-1.69,1.95C37.54,35.63,37.01,35.66,36.47,35.64z"/>
	<path class="st2" d="M39.78,33.57c0-0.02,0-0.04,0-0.06c0,0.01,0.01,0.03,0.01,0.04C39.79,33.56,39.78,33.56,39.78,33.57z"/>
	<path class="st2" d="M37.36,14.3l-0.02,0.02c0,0-0.02,0-0.02,0C37.33,14.3,37.35,14.29,37.36,14.3z"/>
	<path class="st3" d="M14.46,34.96c0.08-0.26,0.32-0.33,0.52-0.44c0.02-0.01,0.06,0.01,0.09,0.01c-0.01,0.02-0.02,0.05-0.04,0.06
		C14.84,34.71,14.65,34.83,14.46,34.96L14.46,34.96z"/>
	<path class="st3" d="M14.35,35.01c-0.01,0.01-0.01,0.03-0.03,0.04c-0.11,0.08-0.2,0.19-0.35,0.2c0,0-0.02-0.04-0.02-0.04
		C14.07,35.1,14.17,34.98,14.35,35.01C14.35,35.01,14.35,35.01,14.35,35.01z"/>
	<path class="st2" d="M14.46,34.95c-0.04,0.02-0.07,0.04-0.11,0.05c0,0,0,0,0,0C14.39,34.99,14.42,34.97,14.46,34.95
		C14.46,34.96,14.46,34.95,14.46,34.95z"/>
</g>
</svg>
