<?xml version="1.0" encoding="utf-8"?>
<!-- Generator: Adobe Illustrator 27.5.0, SVG Export Plug-In . SVG Version: 6.00 Build 0)  -->
<svg version="1.1" id="Layer_1" xmlns="http://www.w3.org/2000/svg" xmlns:xlink="http://www.w3.org/1999/xlink" x="0px" y="0px"
	 viewBox="0 0 50 50" style="enable-background:new 0 0 50 50;" xml:space="preserve">
<style type="text/css">
	.st0{fill:#F00075;}
	.st1{fill:#FFFFFF;}
</style>
<g>
	<circle class="st0" cx="25" cy="25" r="23.5"/>
	<g>
		<path class="st1" d="M24.92,40.11c-2.41,0-4.82,0.07-7.22-0.03c-1.45-0.06-2.79-0.63-4-1.45c-2.26-1.54-3.48-3.69-3.77-6.39
			c-0.05-0.51-0.06-1.03-0.06-1.54c0-4.15-0.02-8.29,0.02-12.44c0.02-1.75,0.6-3.36,1.65-4.78c0.63-0.86,1.35-1.61,2.26-2.17
			c1.63-1.01,3.39-1.46,5.32-1.45c4.02,0.04,8.04,0.01,12.06,0.01c1.13,0,2.24,0.12,3.28,0.56c1.04,0.44,2.05,0.94,2.87,1.73
			c0.84,0.82,1.49,1.76,2,2.84c0.64,1.35,0.81,2.74,0.8,4.19c-0.02,4.08,0,8.15-0.01,12.23c0,1.05-0.15,2.08-0.56,3.05
			c-0.53,1.25-1.19,2.42-2.22,3.33c-1.34,1.2-2.89,1.95-4.67,2.23c-0.51,0.08-1.02,0.08-1.53,0.08C29.07,40.12,27,40.12,24.92,40.11
			C24.92,40.12,24.92,40.11,24.92,40.11z M12.56,25.17c0,2.1,0,4.2,0,6.3c0,0.36,0.03,0.71,0.09,1.07c0.27,1.57,1.14,2.78,2.35,3.71
			c1.07,0.83,2.35,1.19,3.74,1.19c4.12-0.02,8.24-0.01,12.36-0.01c0.23,0,0.48,0.1,0.7,0.05c0.99-0.22,1.97-0.43,2.85-1.01
			c0.97-0.64,1.68-1.47,2.22-2.48c0.54-1.01,0.56-2.11,0.57-3.19c0.03-3.9,0.01-7.79,0.01-11.69c0-1.36-0.22-2.64-1.02-3.8
			c-0.74-1.07-1.68-1.85-2.88-2.36c-0.92-0.4-1.89-0.38-2.84-0.39c-3.85-0.03-7.71-0.02-11.56-0.01c-0.75,0-1.49,0.04-2.23,0.24
			c-1.36,0.36-2.39,1.21-3.22,2.28c-0.88,1.13-1.16,2.48-1.14,3.91C12.58,21.05,12.56,23.11,12.56,25.17z"/>
		<path class="st1" d="M32.69,25.03c-0.01,4.16-3.42,7.66-7.72,7.66c-4.2,0-7.67-3.48-7.66-7.72c0.02-4.21,3.46-7.7,7.74-7.65
			C29.26,17.37,32.68,20.73,32.69,25.03z M30.01,25.01c-0.08-2.84-2.16-4.98-4.99-4.99c-2.81-0.01-5,2.09-5.01,4.96
			C19.99,27.82,22.15,30,25,30C27.87,30,29.94,27.76,30.01,25.01z"/>
		<path class="st1" d="M33.12,18.68c-0.93,0.12-1.82-0.95-1.8-1.74c0.03-1.09,0.77-1.77,1.76-1.78c1-0.01,1.74,0.71,1.8,1.75
			C34.93,17.74,33.94,18.81,33.12,18.68z"/>
		<path class="st0" d="M30.01,25.01C29.94,27.76,27.87,30,25,30c-2.85,0-5.01-2.17-4.99-5.02c0.02-2.87,2.21-4.97,5.01-4.96
			C27.85,20.03,29.93,22.17,30.01,25.01z"/>
	</g>
</g>
</svg>
