<?xml version="1.0" encoding="utf-8"?>
<!-- Generator: Adobe Illustrator 27.5.0, SVG Export Plug-In . SVG Version: 6.00 Build 0)  -->
<svg version="1.1" id="Layer_1" xmlns="http://www.w3.org/2000/svg" xmlns:xlink="http://www.w3.org/1999/xlink" x="0px" y="0px"
	 viewBox="0 0 100 100" style="enable-background:new 0 0 100 100;" xml:space="preserve">
<style type="text/css">
	.st0{fill:#6096B4;}
	.st1{fill:#FFFFFF;}
</style>
<g>
	<path class="st0" d="M50.05,21.8c10.82,0,21.64,0,32.46,0c1.82,0,2.68,0.86,2.68,2.67c0,14.37,0,28.73,0,43.1
		c0,1.83-0.9,2.7-2.74,2.7c-21.64,0-43.28,0-64.91,0c-1.8,0-2.71-0.89-2.71-2.66c0-14.37,0-28.73,0-43.1c0-1.86,0.85-2.71,2.71-2.71
		C28.37,21.8,39.21,21.8,50.05,21.8z M81.13,66.2c0-13.48,0-26.89,0-40.33c-20.76,0-41.5,0-62.24,0c0,13.47,0,26.88,0,40.33
		C39.64,66.2,60.34,66.2,81.13,66.2z M49.07,23.85c0.01,0.48,0.49,0.95,0.96,0.93c0.49-0.02,0.92-0.5,0.9-0.99
		c-0.02-0.48-0.44-0.87-0.93-0.87C49.49,22.91,49.07,23.33,49.07,23.85z"/>
	<path class="st0" d="M49.96,78.19c-13.63,0-27.25,0-40.88,0.01c-1.05,0-1.98-0.23-2.8-0.93c-1.32-1.11-1.46-3.03-1.13-4.47
		c0.16-0.69,0.73-1.05,1.44-1.12c0.18-0.02,0.36-0.01,0.54-0.01c10.55,0,21.1,0,31.65-0.01c0.56,0,0.99,0.08,1.28,0.62
		c0.72,1.31,1.84,1.67,3.32,1.65c4.58-0.08,9.16-0.05,13.74-0.01c1.09,0.01,1.96-0.27,2.5-1.23c0.48-0.85,1.16-1.03,2.1-1.03
		c10.37,0.03,20.74,0.02,31.11,0.02c1.58,0,2.11,0.57,2.16,2.14c0.06,1.85-0.52,3.34-2.32,4.07c-0.58,0.24-1.27,0.28-1.91,0.28
		C77.17,78.2,63.56,78.19,49.96,78.19z"/>
	<path class="st1" d="M49.07,23.85c-0.01-0.52,0.41-0.94,0.94-0.93c0.49,0,0.91,0.39,0.93,0.87c0.02,0.49-0.41,0.97-0.9,0.99
		C49.56,24.79,49.08,24.33,49.07,23.85z"/>
</g>
</svg>
