<?xml version="1.0" encoding="utf-8"?>
<!-- Generator: Adobe Illustrator 27.5.0, SVG Export Plug-In . SVG Version: 6.00 Build 0)  -->
<svg version="1.1" id="Layer_1" xmlns="http://www.w3.org/2000/svg" xmlns:xlink="http://www.w3.org/1999/xlink" x="0px" y="0px"
	 viewBox="0 0 10.9 14.4" style="enable-background:new 0 0 10.9 14.4;" xml:space="preserve">
<style type="text/css">
	.st0{fill:#6197B5;}
</style>
<g>
	<path class="st0" d="M0.9,5.1c0.1-1.5,0.7-2.7,2-3.6c1-0.7,2-0.9,3.2-0.8c2.1,0.3,3.6,1.8,4,3.7c0.2,0.8,0,1.6-0.2,2.4
		c-0.4,1-0.9,2-1.4,3c-0.8,1.3-1.6,2.6-2.4,3.9c-0.2,0.4-0.7,0.4-0.9,0c-1.3-2-2.6-4-3.6-6.2C1.2,6.9,1,6.3,0.9,5.6
		C0.9,5.5,0.9,5.3,0.9,5.1z M5.5,12.4c0.1-0.2,0.2-0.3,0.3-0.5c1-1.6,2-3.2,2.8-4.9c0.2-0.5,0.4-1.1,0.5-1.6c0-0.9-0.3-1.8-0.9-2.5
		c-0.9-1-2.1-1.3-3.3-1.1C3.8,2,3,2.6,2.5,3.4C2,4.2,1.9,5.1,2.1,6c0.2,0.7,0.5,1.3,0.8,1.9c0.7,1.4,1.5,2.7,2.4,4.1
		C5.4,12.1,5.4,12.2,5.5,12.4z"/>
	<path class="st0" d="M5.5,2.4c1.5,0,2.5,1.2,2.5,2.5c0,1.3-1,2.5-2.6,2.5C4,7.4,3,6.2,3,4.9C3,3.8,4,2.3,5.5,2.4z M5.5,3.5
		c-0.7,0-1.4,0.6-1.4,1.4c0,0.8,0.7,1.4,1.5,1.4C6.3,6.3,7,5.6,7,4.9C6.9,4.1,6.3,3.5,5.5,3.5z"/>
</g>
</svg>
