<?xml version="1.0" encoding="utf-8"?>
<!-- Generator: Adobe Illustrator 27.5.0, SVG Export Plug-In . SVG Version: 6.00 Build 0)  -->
<svg version="1.1" id="Layer_1" xmlns="http://www.w3.org/2000/svg" xmlns:xlink="http://www.w3.org/1999/xlink" x="0px" y="0px"
	 viewBox="0 0 28.6 25" style="enable-background:new 0 0 28.6 25;" xml:space="preserve">
<style type="text/css">
	.st0{fill:#6197B5;}
</style>
<g>
	<path class="st0" d="M11.7,10.3c0.2,0.3,0.3,0.5,0.4,0.7c0.2,0.3,0.2,0.3,0,0.5C11,12.6,9.6,13.3,8,13.4c-0.4,0-0.9,0-1.3,0
		c-1.4-0.1-2.5,0.4-3.6,1.3c-0.2,0.2-0.4,0.4-0.7,0.6c2.6,2.6,5.2,5.2,7.8,7.8c0.2-0.2,0.5-0.4,0.7-0.6c0.8-0.8,1.8-1.3,2.8-1.5
		c0.6-0.1,1.2-0.2,1.8-0.1c0.7,0,1.3,0.1,1.9-0.1c0.9-0.2,1.7-0.7,2.4-1.4c1.1-1.3,2.6-1.9,4.2-2c0.5,0,0.9,0,1.4,0
		c0.1,0,0.1,0,0.2,0c-0.1-0.1-0.1-0.2-0.2-0.2c-2.2-2.2-4.3-4.3-6.5-6.5c-0.2-0.2-0.2-0.2-0.1-0.5c0.1-0.2,0.2-0.4,0.3-0.6
		c0-0.1,0.1-0.1,0.1-0.2c0.1,0.1,0.1,0.2,0.2,0.2c1.6,1.7,3.3,3.3,4.9,5c0.9,0.9,1.9,1.9,2.8,2.8c0.2,0.2,0.3,0.4,0.1,0.7
		c-0.1,0.2-0.3,0.3-0.5,0.3c-0.9,0-1.7,0.1-2.6,0.1c-0.9,0-1.8,0.2-2.6,0.7c-0.4,0.3-0.7,0.6-1.1,0.9c-0.9,0.9-2,1.5-3.2,1.8
		c-0.6,0.1-1.3,0.1-1.9,0.1c-1.4-0.1-2.7,0.3-3.7,1.3c-0.4,0.3-0.7,0.7-1.1,1c-0.4,0.3-0.6,0.3-0.9,0c-2.7-2.7-5.4-5.4-8.1-8.1
		c-0.1-0.1-0.3-0.3-0.4-0.4c-0.3-0.3-0.3-0.6,0-0.9c0.6-0.5,1.2-1.1,1.8-1.5c1.1-0.8,2.4-1.1,3.8-1c0.6,0,1.2,0.1,1.8,0
		c0.7-0.1,1.3-0.4,1.9-0.9c0.3-0.3,0.6-0.6,0.9-0.9C11.6,10.4,11.6,10.3,11.7,10.3z"/>
	<path class="st0" d="M10.6,5.1c0.1-1.5,0.7-2.7,2-3.6c1-0.7,2-0.9,3.2-0.8c2.1,0.3,3.6,1.8,4,3.7c0.2,0.8,0,1.6-0.2,2.4
		c-0.4,1-0.9,2-1.4,3c-0.8,1.3-1.6,2.6-2.4,3.9c-0.2,0.4-0.7,0.4-0.9,0c-1.3-2-2.6-4-3.6-6.2c-0.2-0.6-0.5-1.2-0.5-1.8
		C10.6,5.5,10.6,5.3,10.6,5.1z M15.3,12.4c0.1-0.2,0.2-0.3,0.3-0.5c1-1.6,2-3.2,2.8-4.9c0.2-0.5,0.4-1.1,0.5-1.6
		c0-0.9-0.3-1.8-0.9-2.5c-0.9-1-2.1-1.3-3.3-1.1c-1,0.2-1.8,0.8-2.3,1.6c-0.5,0.8-0.7,1.7-0.4,2.6c0.2,0.7,0.5,1.3,0.8,1.9
		c0.7,1.4,1.5,2.7,2.4,4.1C15.1,12.1,15.1,12.2,15.3,12.4z"/>
	<path class="st0" d="M15.3,2.4c1.5,0,2.5,1.2,2.5,2.5c0,1.3-1,2.5-2.6,2.5c-1.5,0-2.5-1.2-2.5-2.5C12.7,3.8,13.7,2.3,15.3,2.4z
		 M15.2,3.5c-0.7,0-1.4,0.6-1.4,1.4c0,0.8,0.7,1.4,1.5,1.4c0.8,0,1.4-0.7,1.4-1.4C16.6,4.1,16.1,3.5,15.2,3.5z"/>
</g>
</svg>
