<?xml version="1.0" encoding="utf-8"?>
<!-- Generator: Adobe Illustrator 27.5.0, SVG Export Plug-In . SVG Version: 6.00 Build 0)  -->
<svg version="1.1" id="Layer_1" xmlns="http://www.w3.org/2000/svg" xmlns:xlink="http://www.w3.org/1999/xlink" x="0px" y="0px"
	 viewBox="0 0 21.6 19.1" style="enable-background:new 0 0 21.6 19.1;" xml:space="preserve">
<style type="text/css">
	.st0{fill:#6197B5;}
</style>
<g>
	<path class="st0" d="M0.7,12.9c0-1.8,0-3.6,0-5.4c0-0.2,0-0.2,0.2-0.3C1.1,7.1,1.2,7,1.4,7C1.6,6.9,1.8,6.8,2,6.8
		c0.2-0.1,0.5-0.2,0.7-0.2c0.3-0.1,0.7-0.3,1-0.4C3.9,6.1,4.1,6,4.2,6c0.2-0.1,0.5-0.2,0.7-0.3c0.2-0.1,0.4-0.1,0.6-0.2
		c0.1,0,0.1,0,0.1,0.1c0,0.2,0.1,0.3,0.1,0.5c0,0.1,0.1,0.2,0.1,0.3c0,0.1,0,0.1-0.1,0.2C5.6,6.6,5.3,6.7,5.1,6.8
		C5,6.8,4.8,6.9,4.7,7C4.5,7,4.4,7.1,4.3,7.1C4.1,7.2,4,7.2,3.8,7.3C3.6,7.3,3.3,7.4,3.1,7.5C2.8,7.6,2.6,7.7,2.3,7.8
		C2.2,7.8,2,7.9,1.9,7.9C1.8,8,1.8,8,1.8,8.1c0,0.1,0,0.2,0,0.3c0,2.7,0,5.5,0,8.2c0,0.1,0,0.1,0,0.2c0,0.1,0,0.1,0.1,0.1
		c0.1,0,0.2-0.1,0.3-0.1c0.2-0.1,0.4-0.1,0.5-0.2c0.2-0.1,0.3-0.1,0.5-0.2c0.3-0.1,0.7-0.2,1-0.4c0.2-0.1,0.4-0.1,0.6-0.2
		c0.1-0.1,0.3-0.1,0.4-0.2c0.2-0.1,0.3-0.1,0.5-0.2c0,0,0,0,0,0c0.2-0.1,0.3-0.1,0.5-0.2c0.1,0,0.1-0.1,0.1-0.2c0-0.5,0-0.9,0-1.4
		c0-1,0-1.9,0-2.9c0-0.1,0-0.2,0-0.2c0,0,0-0.1,0.1-0.1c0.3,0,0.6,0,0.9,0c0.1,0,0.1,0,0.1,0.1c0,0.1,0,0.1,0,0.2c0,1.4,0,2.8,0,4.2
		c0,0.1,0,0.1,0.1,0.2c0.3,0.1,0.5,0.2,0.8,0.2c0.3,0.1,0.6,0.2,0.8,0.2c0.3,0.1,0.6,0.2,0.9,0.3c0.2,0.1,0.4,0.1,0.6,0.2
		c0.3,0.1,0.6,0.2,0.8,0.2c0.1,0,0.2,0.1,0.3,0.1c0.2,0.1,0.4,0.1,0.6,0.2c0.2,0,0.3,0.1,0.5,0.1c0.3,0.1,0.5,0.2,0.8,0.2
		c0.1,0,0.3,0.1,0.4,0.1c0.1,0,0.2,0,0.2-0.1c0-0.7,0-1.4,0-2.1c0-1.3,0-2.7,0-4c0-0.1,0-0.2,0-0.2c0,0,0-0.1,0.1-0.1
		c0.3,0,0.6,0,0.9,0c0.1,0,0.1,0,0.1,0.1c0,0.3,0,0.7,0,1c0,1.7,0,3.5,0,5.2c0,0.2,0,0.2,0.2,0.1c0.3-0.1,0.7-0.2,1-0.3
		c0.2-0.1,0.3-0.1,0.5-0.2c0.1-0.1,0.3-0.1,0.4-0.2c0.3-0.1,0.5-0.2,0.8-0.3c0.1-0.1,0.3-0.1,0.4-0.1c0.1,0,0.3-0.1,0.4-0.2
		c0,0,0.1,0,0.1,0c0.2-0.1,0.3-0.1,0.5-0.2c0.1,0,0.1-0.1,0.1-0.2c0-0.7,0-1.4,0-2.1c0-2.2,0-4.4,0-6.5c0,0,0-0.1,0-0.1
		c0-0.1,0-0.1-0.1-0.1c-0.2,0.1-0.4,0.2-0.6,0.2c0,0,0,0,0,0C19.1,6.9,18.9,7,18.8,7c-0.2,0.1-0.4,0.1-0.6,0.2
		c-0.3,0.1-0.5,0.2-0.8,0.3c-0.2,0.1-0.5,0.2-0.7,0.3c-0.3,0.1-0.5,0.2-0.8,0.3c-0.1,0-0.3,0.1-0.4,0.1c-0.1,0-0.2,0.1-0.4,0.1
		c0,0,0,0,0,0c0,0-0.1,0-0.1,0c0,0,0,0,0-0.1c0.1-0.1,0.1-0.2,0.2-0.3c0.1-0.2,0.2-0.4,0.3-0.6c0.1-0.1,0.1-0.3,0.2-0.4
		c0,0,0,0,0.1-0.1c0.2-0.1,0.4-0.1,0.6-0.2c0.3-0.1,0.5-0.2,0.8-0.3c0.1-0.1,0.3-0.1,0.4-0.2c0.1-0.1,0.3-0.1,0.4-0.1
		C18.2,6,18.4,6,18.5,5.9c0.2-0.1,0.4-0.1,0.6-0.2c0.2-0.1,0.4-0.2,0.7-0.2c0.1,0,0.2-0.1,0.3-0.1c0.1,0,0.2-0.1,0.4-0.1
		c0.1,0,0.3-0.1,0.4-0.1C20.9,5.1,21,5,21,5c0,0,0.1,0,0.1,0c0,0,0,0.1,0,0.1c0,2.6,0,5.2,0,7.8c0,0.9,0,1.9,0,2.8
		c0,0.1,0,0.3,0,0.4c0,0.1,0,0.1-0.1,0.1c-0.3,0.1-0.6,0.2-0.9,0.3c-0.2,0.1-0.4,0.2-0.7,0.2c-0.5,0.2-0.9,0.3-1.4,0.5
		c-0.3,0.1-0.5,0.2-0.8,0.3c-0.3,0.1-0.6,0.2-1,0.4c-0.3,0.1-0.6,0.2-0.9,0.3c-0.1,0-0.2,0.1-0.3,0.1c-0.2,0.1-0.3,0.1-0.5,0
		c0,0,0,0,0,0c-0.2-0.1-0.4-0.1-0.6-0.2c-0.2-0.1-0.4-0.1-0.6-0.2c-0.3-0.1-0.6-0.2-0.9-0.3c-0.3-0.1-0.6-0.2-0.9-0.2
		c-0.2-0.1-0.4-0.1-0.6-0.2c-0.3-0.1-0.6-0.2-0.9-0.2C9.8,17.1,9.5,17,9.2,17c-0.1,0-0.3-0.1-0.4-0.1c-0.3-0.1-0.7-0.2-1-0.3
		c-0.2,0-0.3-0.1-0.5-0.1c-0.1,0-0.2-0.1-0.3-0.1c-0.1,0-0.2,0-0.3,0c-0.2,0.1-0.3,0.1-0.5,0.2c-0.2,0.1-0.3,0.1-0.5,0.2
		c-0.2,0.1-0.3,0.1-0.5,0.2C5.2,16.9,5,17,4.9,17c-0.1,0-0.1,0-0.2,0.1c-0.3,0.1-0.6,0.2-0.8,0.3c-0.3,0.1-0.5,0.2-0.8,0.3
		c-0.2,0.1-0.4,0.2-0.6,0.2c-0.2,0.1-0.3,0.1-0.5,0.2c-0.2,0.1-0.3,0.1-0.5,0.2c-0.2,0.1-0.3,0.1-0.5,0.2c-0.1,0-0.1,0.1-0.2,0.1
		c0,0-0.1,0-0.1,0c0,0,0-0.1,0-0.1c0-0.6,0-1.2,0-1.8C0.7,15.4,0.7,14.1,0.7,12.9C0.7,12.9,0.7,12.9,0.7,12.9z"/>
	<path class="st0" d="M6.7,4.6c0-0.2,0.1-0.3,0.1-0.5c0-0.1,0-0.3,0-0.4C6.8,3.5,6.9,3.3,7,3.1C7,3,7,2.8,7.1,2.7
		c0.1-0.1,0.2-0.3,0.3-0.4C7.6,2,7.8,1.7,8.1,1.5C8.4,1.2,8.7,1,9.1,0.8c0.2-0.1,0.5-0.2,0.7-0.3c0.4-0.1,0.9-0.2,1.3-0.2
		c0.2,0,0.5,0,0.7,0.1c0.2,0,0.4,0.1,0.5,0.2c0.2,0,0.4,0.2,0.6,0.2C13,1,13.1,1,13.2,1.1c0.5,0.3,1,0.8,1.3,1.3
		c0.2,0.3,0.4,0.7,0.5,1c0.1,0.4,0.2,0.8,0.2,1.3c0,0.3-0.1,0.7-0.2,1c-0.1,0.3-0.2,0.6-0.4,0.9c-0.2,0.3-0.3,0.6-0.5,0.9
		c-0.2,0.4-0.5,0.7-0.7,1.1c-0.3,0.4-0.6,0.9-1,1.3c-0.3,0.4-0.6,0.7-0.9,1.1c-0.2,0.2-0.3,0.4-0.5,0.6c0,0,0,0.1-0.1,0.1
		c0,0.1-0.1,0.1-0.2,0c0,0-0.1-0.1-0.1-0.1c-0.1-0.1-0.3-0.3-0.4-0.4c-0.1-0.2-0.3-0.3-0.4-0.5c-0.2-0.2-0.3-0.4-0.5-0.6
		C9.3,9.8,9.2,9.6,9,9.5C8.9,9.3,8.8,9.1,8.7,9C8.6,8.8,8.5,8.7,8.4,8.6C8.3,8.4,8.2,8.3,8.1,8.1C8,7.9,7.8,7.7,7.7,7.4
		C7.5,7.1,7.3,6.7,7.1,6.3C7,6.1,6.9,5.9,6.8,5.6C6.8,5.4,6.7,5.1,6.7,4.9C6.7,4.8,6.7,4.7,6.7,4.6C6.7,4.6,6.7,4.6,6.7,4.6z
		 M14.1,4.6c0-0.1,0-0.2,0-0.4C14,4.2,14,4.1,14,4c0-0.1-0.1-0.3-0.1-0.4c0-0.1-0.1-0.2-0.1-0.3c-0.1-0.2-0.2-0.3-0.3-0.5
		c-0.2-0.3-0.5-0.6-0.8-0.8c-0.1-0.1-0.3-0.2-0.4-0.2c-0.2-0.1-0.4-0.2-0.6-0.2c0,0-0.1,0-0.1,0c-0.3-0.1-0.7-0.1-1,0
		c-0.2,0-0.5,0.1-0.7,0.2C9.5,1.8,9.3,2,9.1,2.1c-0.4,0.3-0.8,0.7-1,1.2C8,3.4,8,3.5,8,3.6C7.8,3.9,7.8,4.2,7.8,4.4
		C7.7,4.7,7.8,5,7.9,5.2C7.9,5.4,8,5.6,8.1,5.8C8.2,6,8.2,6.2,8.3,6.4c0.1,0.2,0.2,0.4,0.3,0.6C8.8,7.2,9,7.4,9.1,7.7
		c0.1,0.2,0.3,0.4,0.4,0.6c0.2,0.3,0.5,0.7,0.7,1c0.2,0.2,0.4,0.4,0.5,0.7c0,0,0.1,0.1,0.2,0c0.2-0.3,0.4-0.5,0.6-0.8
		C11.8,9,12,8.7,12.1,8.5c0.1-0.1,0.2-0.2,0.3-0.4c0.2-0.2,0.3-0.4,0.5-0.7c0.2-0.3,0.4-0.7,0.6-1c0-0.1,0.1-0.2,0.1-0.3
		c0.1-0.1,0.1-0.3,0.2-0.4c0.1-0.2,0.1-0.3,0.2-0.5C14,5.2,14,5.1,14,5C14.1,4.9,14.1,4.7,14.1,4.6z"/>
	<path class="st0" d="M10.1,4.4c0-0.2,0-0.3,0.1-0.5c0.1-0.1,0.2-0.2,0.4-0.3c0.1,0,0.2-0.1,0.3-0.1c0.1,0,0.2,0,0.3,0
		c0,0,0,0,0.1,0c0.3,0,0.4,0.3,0.5,0.5c0,0.1,0.1,0.1,0.1,0.2c0,0,0,0.1,0,0.2c0,0,0,0.1,0,0.1c0,0.3-0.2,0.5-0.4,0.6
		c-0.2,0.1-0.5,0.1-0.7,0c-0.2-0.1-0.4-0.3-0.5-0.5C10.1,4.6,10.1,4.5,10.1,4.4z"/>
</g>
</svg>
