<?xml version="1.0" encoding="utf-8"?>
<!-- Generator: Adobe Illustrator 27.5.0, SVG Export Plug-In . SVG Version: 6.00 Build 0)  -->
<svg version="1.1" id="Layer_1" xmlns="http://www.w3.org/2000/svg" xmlns:xlink="http://www.w3.org/1999/xlink" x="0px" y="0px"
	 viewBox="0 0 100 100" style="enable-background:new 0 0 100 100;" xml:space="preserve">
<style type="text/css">
	.st0{fill:#FFFFFF;}
	.st1{fill:#6096B4;}
</style>
<g>
	<path class="st0" d="M50,23c-15,0.3-26.8,12-26.9,26.8C23,64.9,35,77,50.1,76.9C65.2,76.8,76.9,65.1,77,50C77,34.9,65.1,23.2,50,23
		z M53.8,12.7c0-1.3,0.1-2.7,0-4c-0.1-2.4-2-3.7-3.9-3.7c-2.2,0.1-3.7,1.7-3.7,3.8c0,2.6,0,5.1,0,7.7c0,2.1,1.7,3.8,3.8,3.8
		c2.1,0,3.8-1.7,3.8-3.8C53.8,15.2,53.8,14,53.8,12.7z M87.3,53.8c1.3,0,2.7,0.1,4,0c2.5-0.1,3.8-2.2,3.7-3.9
		c-0.1-2.1-1.8-3.7-3.9-3.7c-2.5,0-5,0-7.5,0c-2.1,0-3.9,1.7-3.9,3.8c0,2.1,1.7,3.8,3.9,3.8C84.8,53.8,86,53.8,87.3,53.8z
		 M71.9,24.3c0.2,1.5,0.8,2.7,2.2,3.4c1.5,0.7,3,0.5,4.2-0.7c1.8-1.7,3.6-3.5,5.3-5.3c0.7-0.8,1.1-1.7,1-2.8
		c-0.1-1.6-0.9-2.7-2.4-3.3c-1.5-0.6-2.9-0.3-4,0.8c-1.8,1.7-3.5,3.5-5.3,5.3C72.3,22.3,72,23.2,71.9,24.3z M15.3,81
		c0.1,1.4,0.8,2.6,2.2,3.3c1.5,0.7,2.9,0.5,4.1-0.6c1.9-1.7,3.6-3.6,5.4-5.4c0.7-0.8,1.2-1.8,1-2.8c-0.2-1.5-1-2.7-2.5-3.3
		c-1.5-0.6-2.8-0.2-4,0.8c-1.8,1.7-3.5,3.5-5.2,5.2C15.7,78.9,15.4,79.8,15.3,81z M15.4,18.8c0,1.4,0.4,2.2,1.1,2.9
		c1.7,1.8,3.5,3.5,5.2,5.2c0.7,0.7,1.6,1.1,2.6,1.1c2.8-0.1,4.5-2.9,3.5-5.1c-0.3-0.6-0.6-1.1-1.1-1.6c-1.5-1.6-3.1-3.2-4.7-4.7
		c-0.3-0.3-0.7-0.6-1.1-0.8c-1.3-0.7-2.6-0.7-3.8,0.1C16,16.6,15.4,17.8,15.4,18.8z M75.7,71.9c-1.4,0.2-2.7,0.8-3.3,2.2
		c-0.8,1.5-0.5,3,0.7,4.2c1.7,1.8,3.5,3.6,5.3,5.3c0.7,0.7,1.6,1.1,2.6,1c1.6-0.1,2.8-0.9,3.4-2.3c0.6-1.5,0.3-2.9-0.7-4
		c-1.7-1.8-3.5-3.6-5.3-5.3C77.6,72.3,76.7,71.9,75.7,71.9z"/>
	<path class="st1" d="M49.5,95c-0.2-0.1-0.3-0.2-0.5-0.3c-1.4-0.2-2.8-1.6-2.8-3.5c0-2.6,0-5.2,0-7.9c0-1.8,1.5-3.4,3.2-3.7
		c2-0.3,3.7,0.8,4.2,2.8c0.1,0.3,0.1,0.7,0.1,1c0,2.6,0,5.1,0,7.7c0,1.8-1.1,3.2-2.9,3.7c-0.1,0-0.2,0.1-0.3,0.2
		C50.3,95,49.9,95,49.5,95z"/>
	<path class="st1" d="M5,49.6c0.1-0.2,0.2-0.4,0.3-0.6c0.4-1.6,1.8-2.8,3.5-2.8c2.7,0,5.3,0,8,0c1.7,0,3.4,1.5,3.6,3.2
		c0.2,2.1-0.9,3.8-2.9,4.3c-0.3,0.1-0.6,0.1-0.8,0.1c-2.6,0-5.1,0-7.7,0c-1.8,0-3.3-1.2-3.7-2.9c-0.1-0.2-0.1-0.4-0.2-0.6
		C5,50,5,49.8,5,49.6z"/>
	<path class="st1" d="M50,23C65.1,23.2,77,34.9,77,50c0,15.1-11.8,26.8-26.8,26.9C35,77,23,64.9,23.1,49.8C23.1,35,34.9,23.3,50,23z
		 M50,69.3c10.4-0.1,19.3-8.2,19.3-19.4c0-10.6-8.3-19.2-19.1-19.4C39.4,30.5,30.8,39,30.7,49.8C30.5,60.6,39.1,69.3,50,69.3z"/>
	<path class="st1" d="M53.8,12.7c0,1.3,0,2.6,0,3.8c0,2.1-1.7,3.8-3.8,3.8c-2,0-3.8-1.7-3.8-3.8c0-2.6,0-5.1,0-7.7
		c0-2.1,1.5-3.7,3.7-3.8c1.9-0.1,3.7,1.2,3.9,3.7C53.9,10,53.8,11.3,53.8,12.7z"/>
	<path class="st1" d="M87.3,53.8c-1.3,0-2.5,0-3.8,0c-2.1,0-3.8-1.7-3.9-3.8c0-2.1,1.7-3.8,3.9-3.8c2.5,0,5,0,7.5,0
		c2.1,0,3.8,1.5,3.9,3.7c0.1,1.7-1.2,3.8-3.7,3.9C90,53.8,88.6,53.8,87.3,53.8z"/>
	<path class="st1" d="M71.9,24.3c0.1-1,0.4-1.9,1.1-2.7c1.7-1.8,3.5-3.6,5.3-5.3c1.1-1.1,2.5-1.4,4-0.8c1.5,0.6,2.2,1.7,2.4,3.3
		c0.1,1.1-0.3,2-1,2.8c-1.8,1.8-3.5,3.6-5.3,5.3c-1.2,1.1-2.6,1.4-4.2,0.7C72.7,27,72.1,25.8,71.9,24.3z"/>
	<path class="st1" d="M15.3,81c0-1.1,0.4-2,1.1-2.7c1.7-1.8,3.5-3.5,5.2-5.2c1.1-1.1,2.4-1.4,4-0.8c1.5,0.6,2.3,1.7,2.5,3.3
		c0.1,1.1-0.3,2.1-1,2.8c-1.8,1.8-3.6,3.7-5.4,5.4c-1.2,1.1-2.6,1.3-4.1,0.6C16.1,83.6,15.4,82.4,15.3,81z"/>
	<path class="st1" d="M15.4,18.8c0-1.1,0.6-2.2,1.8-2.9c1.2-0.8,2.5-0.8,3.8-0.1c0.4,0.2,0.8,0.5,1.1,0.8c1.6,1.6,3.2,3.1,4.7,4.7
		c0.4,0.5,0.8,1,1.1,1.6c1,2.2-0.7,5-3.5,5.1c-1,0-1.9-0.4-2.6-1.1c-1.8-1.7-3.5-3.5-5.2-5.2C15.8,21,15.4,20.2,15.4,18.8z"/>
	<path class="st1" d="M75.7,71.9c1.1,0.1,2,0.4,2.7,1.1c1.8,1.7,3.6,3.5,5.3,5.3c1.1,1.1,1.4,2.5,0.7,4c-0.6,1.5-1.8,2.3-3.4,2.3
		c-1,0.1-1.9-0.3-2.6-1c-1.8-1.8-3.6-3.5-5.3-5.3c-1.1-1.2-1.4-2.7-0.7-4.2C73,72.7,74.2,72,75.7,71.9z"/>
</g>
</svg>
