<?xml version="1.0" encoding="UTF-8"?><svg id="Layer_1" xmlns="http://www.w3.org/2000/svg" viewBox="0 0 259 12.23"><defs><style>.cls-1{fill:#fff;}</style></defs><path class="cls-1" d="m258.92,10.24c-.82-.09-1.56-.18-2.31-.25-2.03-.18-4.25-1.94-4.37-3.47-.11-1.44.87-2.22,3.55-2.92.35-.09.85-.4.9-.67.06-.32-.22-.85-.51-1.04-3.51-2.24-5.98-2.68-9.03-.04-.71.62-1.3,1.37-1.95,2.05-1.53,1.6-2.95,3.34-4.63,4.76-2.2,1.85-5.29,1.87-7.7.35-1.11-.7-1.9-1.74-1.66-3.06.22-1.26,1.32-1.89,2.53-2.22.27-.07.57-.08.83-.16,1.08-.33,1.31-1.09.4-1.71-2.99-2-5.59-2.88-8.91-.1-1.25,1.05-2.21,2.45-3.26,3.73-1.39,1.7-2.92,3.22-4.98,4.12-2.31,1.01-5.37.44-6.95-1.32-1.31-1.46-1.03-3.21.69-4.08.54-.27,1.18-.33,1.74-.57.4-.17.98-.43,1.04-.73.07-.35-.23-.98-.56-1.18-1.83-1.09-3.69-2.08-5.98-1.49-2.54.65-4.03,2.54-5.52,4.44-2.05,2.62-4.31,4.89-7.75,5.56-.77-.09-1.49-.18-2.2-.24-2.03-.18-4.25-1.94-4.37-3.47-.11-1.44.87-2.22,3.55-2.92.35-.09.85-.4.9-.67.06-.32-.22-.85-.51-1.04-3.51-2.24-5.98-2.68-9.03-.04-.71.62-1.3,1.37-1.95,2.05-1.53,1.6-2.95,3.34-4.63,4.76-2.2,1.85-5.29,1.87-7.7.35-1.11-.7-1.9-1.74-1.66-3.06.22-1.26,1.32-1.89,2.53-2.22.27-.07.57-.08.83-.16,1.08-.33,1.31-1.09.4-1.71-2.99-2-5.59-2.88-8.91-.1-1.25,1.05-2.21,2.45-3.26,3.73-1.39,1.7-2.92,3.22-4.98,4.12-2.31,1.01-5.37.44-6.95-1.32-1.31-1.46-1.03-3.21.69-4.08.54-.27,1.18-.33,1.74-.57.4-.17.98-.43,1.04-.73.07-.35-.23-.98-.56-1.18-1.83-1.09-3.69-2.08-5.98-1.49-2.54.65-4.03,2.54-5.52,4.44-2.08,2.66-4.38,4.97-7.91,5.6-.06.01-.13.05-.2.09,0-.04,0-.07-.02-.11-.82-.09-1.56-.18-2.31-.25-2.03-.18-4.25-1.94-4.37-3.47-.11-1.44.87-2.22,3.55-2.92.35-.09.85-.4.9-.67.06-.32-.22-.85-.51-1.04-3.51-2.24-5.98-2.68-9.03-.04-.71.62-1.3,1.37-1.95,2.05-1.53,1.6-2.95,3.34-4.63,4.76-2.2,1.85-5.29,1.87-7.7.35-1.11-.7-1.9-1.74-1.66-3.06.22-1.26,1.32-1.89,2.53-2.22.27-.07.57-.08.83-.16,1.08-.33,1.31-1.09.4-1.71-2.99-2-5.59-2.88-8.91-.1-1.25,1.05-2.21,2.45-3.26,3.73-1.39,1.7-2.92,3.22-4.98,4.12-2.31,1.01-5.37.44-6.95-1.32-1.31-1.46-1.03-3.21.69-4.08.54-.27,1.18-.33,1.74-.57.4-.17.98-.43,1.04-.73.07-.35-.23-.98-.56-1.18-1.83-1.09-3.69-2.08-5.98-1.49-2.54.65-4.03,2.54-5.52,4.44-2.07,2.64-4.35,4.94-7.84,5.58,0,0,0,0,0-.01-.82-.09-1.56-.18-2.31-.25-2.03-.18-4.25-1.94-4.37-3.47-.11-1.44.87-2.22,3.55-2.92.35-.09.85-.4.9-.67.06-.32-.22-.85-.51-1.04-3.51-2.24-5.98-2.68-9.03-.04-.71.62-1.3,1.37-1.95,2.05-1.53,1.6-2.95,3.34-4.63,4.76-2.2,1.85-5.29,1.87-7.7.35-1.11-.7-1.9-1.74-1.66-3.06.22-1.26,1.32-1.89,2.53-2.22.27-.07.57-.08.83-.16,1.08-.33,1.31-1.09.4-1.71-2.99-2-5.59-2.88-8.91-.1-1.25,1.05-2.21,2.45-3.26,3.73-1.39,1.7-2.92,3.22-4.98,4.12-2.31,1.01-5.37.44-6.95-1.32-1.31-1.46-1.03-3.21.69-4.08.54-.27,1.18-.33,1.74-.57.4-.17.98-.43,1.04-.73.07-.35-.23-.98-.56-1.18-1.83-1.09-3.69-2.08-5.98-1.49-2.54.65-4.03,2.54-5.52,4.44-2.08,2.66-4.38,4.97-7.91,5.6-.33.06-.89.59-.84.71.16.45.48.91.87,1.17.24.16.73.02,1.09-.05,3.31-.66,5.57-2.83,7.66-5.28,1.28-1.5,2.68-2.91,4.11-4.27.78-.73,1.78-.8,2.88-.13-.47.53-.87,1.04-1.33,1.49-1.04,1.03-1.23,2.35-.66,3.53.58,1.19,1.38,2.46,2.43,3.19,2.83,1.99,5.89,1.93,8.98.36,2.82-1.43,4.41-4.07,6.48-6.25,1-1.06,2.35-1.81,3.61-2.58.36-.22.98-.03,1.47-.03-.72,1.3-1.58,2.28-1.83,3.4-.53,2.41.56,4.2,3.02,5.51,4.03,2.14,7.91,1.13,11.33-2.22,1.82-1.78,3.38-3.82,5.13-5.68.92-.98,2.14-1.2,3.65-.82-.39.46-.65.77-.92,1.08-1.53,1.76-1.69,3.17-.56,5.18,1.46,2.58,3.92,3.44,6.66,3.63.44.03.78-.07,1.01-.28.08.08.17.16.27.22.24.16.73.02,1.09-.05,3.31-.66,5.57-2.83,7.66-5.28,1.28-1.5,2.68-2.91,4.11-4.27.78-.73,1.78-.8,2.88-.13-.47.53-.87,1.04-1.33,1.49-1.04,1.03-1.23,2.35-.66,3.53.58,1.19,1.38,2.46,2.43,3.19,2.83,1.99,5.89,1.93,8.98.36,2.82-1.43,4.41-4.07,6.48-6.25,1-1.06,2.35-1.81,3.61-2.58.36-.22.98-.03,1.47-.03-.72,1.3-1.58,2.28-1.83,3.4-.53,2.41.56,4.2,3.02,5.51,4.03,2.14,7.91,1.13,11.33-2.22,1.82-1.78,3.38-3.82,5.13-5.68.92-.98,2.14-1.2,3.65-.82-.39.46-.65.77-.92,1.08-1.53,1.76-1.69,3.17-.56,5.18,1.46,2.58,3.92,3.44,6.66,3.63.54.04.93-.12,1.15-.43.12.15.25.28.4.38.24.16.73.02,1.09-.05,3.31-.66,5.57-2.83,7.66-5.28,1.28-1.5,2.68-2.91,4.11-4.27.78-.73,1.78-.8,2.88-.13-.47.53-.87,1.04-1.33,1.49-1.04,1.03-1.23,2.35-.66,3.53.58,1.19,1.38,2.46,2.43,3.19,2.83,1.99,5.89,1.93,8.98.36,2.82-1.43,4.41-4.07,6.48-6.25,1-1.06,2.35-1.81,3.61-2.58.36-.22.98-.03,1.47-.03-.72,1.3-1.58,2.28-1.83,3.4-.53,2.41.56,4.2,3.02,5.51,4.03,2.14,7.91,1.13,11.33-2.22,1.82-1.78,3.38-3.82,5.13-5.68.92-.98,2.14-1.2,3.65-.82-.39.46-.65.77-.92,1.08-1.53,1.76-1.69,3.17-.56,5.18,1.46,2.58,3.92,3.44,6.66,3.63.38.03.67-.05.9-.2.06.05.11.1.17.14.24.16.73.02,1.09-.05,3.31-.66,5.57-2.83,7.66-5.28,1.28-1.5,2.68-2.91,4.11-4.27.78-.73,1.78-.8,2.88-.13-.47.53-.87,1.04-1.33,1.49-1.04,1.03-1.23,2.35-.66,3.53.58,1.19,1.38,2.46,2.43,3.19,2.83,1.99,5.89,1.93,8.98.36,2.82-1.43,4.41-4.07,6.48-6.25,1-1.06,2.35-1.81,3.61-2.58.36-.22.98-.03,1.47-.03-.72,1.3-1.58,2.28-1.83,3.4-.53,2.41.56,4.2,3.02,5.51,4.03,2.14,7.91,1.13,11.33-2.22,1.82-1.78,3.38-3.82,5.13-5.68.92-.98,2.14-1.2,3.65-.82-.39.46-.65.77-.92,1.08-1.53,1.76-1.69,3.17-.56,5.18,1.46,2.58,3.92,3.44,6.66,3.63,1.12.08,1.59-.65,1.31-1.97Z"/></svg>