<?xml version="1.0" encoding="UTF-8"?><svg id="Layer_1" xmlns="http://www.w3.org/2000/svg" viewBox="0 0 390 12.52"><defs><style>.cls-1{fill:#fff;}</style></defs><path class="cls-1" d="m389.94,9.93c-.62-.09-1.18-.18-1.74-.24-1.53-.17-3.21-1.88-3.29-3.37-.08-1.4.66-2.15,2.68-2.83.26-.09.64-.38.68-.65.04-.31-.17-.83-.39-1.01-2.65-2.17-4.51-2.6-6.81-.04-.54.6-.98,1.33-1.47,1.99-1.16,1.55-2.22,3.24-3.49,4.62-1.66,1.79-3.99,1.82-5.81.34-.83-.68-1.43-1.69-1.25-2.97.17-1.23,1-1.83,1.91-2.15.21-.07.43-.08.63-.15.82-.32.99-1.06.3-1.66-2.26-1.94-4.22-2.79-6.72-.1-.94,1.01-1.67,2.38-2.46,3.62-1.05,1.65-2.2,3.12-3.75,3.99-1.74.98-4.05.43-5.24-1.28-.98-1.41-.77-3.12.52-3.96.41-.26.89-.32,1.31-.56.3-.17.74-.41.79-.71.05-.34-.18-.95-.42-1.14-1.38-1.06-2.78-2.01-4.51-1.45-1.92.63-3.04,2.47-4.16,4.31-1.55,2.54-3.25,4.74-5.84,5.39-.58-.08-1.12-.17-1.66-.23-1.53-.17-3.21-1.88-3.29-3.37-.08-1.4.66-2.15,2.68-2.83.27-.09.64-.38.68-.65.04-.31-.17-.83-.39-1.01-2.65-2.17-4.51-2.6-6.81-.04-.54.6-.98,1.33-1.47,1.99-1.16,1.55-2.22,3.24-3.49,4.62-1.66,1.79-3.99,1.82-5.81.34-.83-.68-1.43-1.69-1.25-2.97.17-1.23,1-1.83,1.91-2.15.21-.07.43-.08.63-.15.82-.32.99-1.06.3-1.66-2.26-1.94-4.22-2.79-6.72-.1-.94,1.01-1.67,2.38-2.46,3.62-1.05,1.65-2.2,3.12-3.75,3.99-1.74.98-4.05.43-5.24-1.28-.98-1.41-.77-3.12.52-3.96.41-.26.89-.32,1.31-.56.3-.17.74-.41.79-.71.05-.34-.18-.95-.42-1.14-1.38-1.06-2.78-2.01-4.51-1.45-1.92.63-3.04,2.47-4.16,4.31-1.57,2.58-3.3,4.82-5.96,5.43-.04.01-.1.05-.15.08,0-.04,0-.07-.01-.11-.62-.09-1.18-.18-1.74-.24-1.53-.17-3.21-1.88-3.29-3.37-.08-1.4.66-2.15,2.68-2.83.26-.09.64-.38.68-.65.04-.31-.17-.83-.39-1.01-2.65-2.17-4.51-2.6-6.81-.04-.54.6-.98,1.33-1.47,1.99-1.16,1.55-2.22,3.24-3.49,4.62-1.66,1.79-3.99,1.82-5.81.34-.83-.68-1.43-1.69-1.25-2.97.17-1.23,1-1.83,1.91-2.15.21-.07.43-.08.63-.15.82-.32.99-1.06.3-1.66-2.26-1.94-4.22-2.79-6.72-.1-.94,1.01-1.67,2.38-2.46,3.62-1.05,1.65-2.2,3.12-3.75,3.99-1.74.98-4.05.43-5.24-1.28-.98-1.41-.77-3.12.52-3.96.41-.26.89-.32,1.31-.56.3-.17.74-.41.79-.71.05-.34-.18-.95-.42-1.14-1.38-1.06-2.78-2.01-4.51-1.45-1.92.63-3.04,2.47-4.16,4.31-1.56,2.56-3.28,4.79-5.92,5.41,0,0,0,0,0-.01-.62-.09-1.18-.18-1.74-.24-1.53-.17-3.21-1.88-3.29-3.37-.08-1.4.66-2.15,2.68-2.83.26-.09.64-.38.68-.65.04-.31-.17-.83-.39-1.01-2.65-2.17-4.51-2.6-6.81-.04-.54.6-.98,1.33-1.47,1.99-1.16,1.55-2.22,3.24-3.49,4.62-1.66,1.79-3.99,1.82-5.81.34-.83-.68-1.43-1.69-1.25-2.97.17-1.23,1-1.83,1.91-2.15.21-.07.43-.08.63-.15.82-.32.99-1.06.3-1.66-2.26-1.94-4.22-2.79-6.72-.1-.94,1.01-1.67,2.38-2.46,3.62-1.05,1.65-2.2,3.12-3.75,3.99-1.74.98-4.05.43-5.24-1.28-.98-1.41-.77-3.12.52-3.96.41-.26.89-.32,1.31-.56.3-.17.74-.41.79-.71.05-.34-.18-.95-.42-1.14-1.38-1.06-2.78-2.01-4.51-1.45-1.92.63-3.04,2.47-4.16,4.31-1.57,2.58-3.3,4.82-5.96,5.43-.14.03-.74.25-1.25.46-.17-.02-.34-.05-.51-.07-1.53-.17-3.21-1.88-3.29-3.37-.08-1.4.66-2.15,2.68-2.83.26-.09.64-.38.68-.65.04-.31-.17-.83-.39-1.01-2.65-2.17-4.51-2.6-6.81-.04-.54.6-.98,1.33-1.47,1.99-1.16,1.55-2.22,3.24-3.49,4.62-1.66,1.79-3.99,1.82-5.81.34-.83-.68-1.43-1.69-1.25-2.97.17-1.23,1-1.83,1.91-2.15.21-.07.43-.08.63-.15.82-.32.99-1.06.3-1.66-2.26-1.94-4.22-2.79-6.72-.1-.94,1.01-1.67,2.38-2.46,3.62-1.05,1.65-2.2,3.12-3.75,3.99-1.74.98-4.05.43-5.24-1.28-.98-1.41-.77-3.12.52-3.96.41-.26.89-.32,1.31-.56.3-.17.74-.41.79-.71.05-.34-.18-.95-.42-1.14-1.38-1.06-2.78-2.01-4.51-1.45-1.92.63-3.04,2.47-4.16,4.31-1.55,2.54-3.25,4.74-5.84,5.39-.58-.08-1.12-.17-1.66-.23-1.53-.17-3.21-1.88-3.29-3.37-.08-1.4.66-2.15,2.68-2.83.26-.09.64-.38.68-.65.04-.31-.17-.83-.39-1.01-2.65-2.17-4.51-2.6-6.81-.04-.54.6-.98,1.33-1.47,1.99-1.16,1.55-2.22,3.24-3.49,4.62-1.66,1.79-3.99,1.82-5.81.34-.83-.68-1.43-1.69-1.25-2.97.17-1.23,1-1.83,1.91-2.15.21-.07.43-.08.63-.15.82-.32.99-1.06.3-1.66-2.26-1.94-4.22-2.79-6.72-.1-.94,1.01-1.67,2.38-2.46,3.62-1.05,1.65-2.2,3.12-3.75,3.99-1.74.98-4.05.43-5.24-1.28-.98-1.41-.77-3.12.52-3.96.41-.26.89-.32,1.31-.56.3-.17.74-.41.79-.71.05-.34-.18-.95-.42-1.14-1.38-1.06-2.78-2.01-4.51-1.45-1.92.63-3.04,2.47-4.16,4.31-1.57,2.58-3.3,4.82-5.96,5.43-.04.01-.1.05-.15.08,0-.04,0-.07-.01-.11-.62-.09-1.18-.18-1.74-.24-1.53-.17-3.21-1.88-3.29-3.37-.08-1.4.66-2.15,2.68-2.83.26-.09.64-.38.68-.65.04-.31-.17-.83-.39-1.01-2.65-2.17-4.51-2.6-6.81-.04-.54.6-.98,1.33-1.47,1.99-1.16,1.55-2.22,3.24-3.49,4.62-1.66,1.79-3.99,1.82-5.81.34-.83-.68-1.43-1.69-1.25-2.97.17-1.23,1-1.83,1.91-2.15.21-.07.43-.08.63-.15.82-.32.99-1.06.3-1.66-2.26-1.94-4.22-2.79-6.72-.1-.94,1.01-1.67,2.38-2.46,3.62-1.05,1.65-2.2,3.12-3.75,3.99-1.74.98-4.05.43-5.24-1.28-.98-1.41-.77-3.12.52-3.96.41-.26.89-.32,1.31-.56.3-.17.74-.41.79-.71.05-.34-.18-.95-.42-1.14-1.38-1.06-2.78-2.01-4.51-1.45-1.92.63-3.04,2.47-4.16,4.31-1.56,2.56-3.28,4.79-5.92,5.41,0,0,0,0,0-.01-.62-.09-1.18-.18-1.74-.24-1.53-.17-3.21-1.88-3.29-3.37-.08-1.4.66-2.15,2.68-2.83.26-.09.64-.38.68-.65.04-.31-.17-.83-.39-1.01-2.65-2.17-4.51-2.6-6.81-.04-.54.6-.98,1.33-1.47,1.99-1.16,1.55-2.22,3.24-3.49,4.62-1.66,1.79-3.99,1.82-5.81.34-.83-.68-1.43-1.69-1.25-2.97.17-1.23,1-1.83,1.91-2.15.21-.07.43-.08.63-.15.82-.32.99-1.06.3-1.66-2.26-1.94-4.22-2.79-6.72-.1-.94,1.01-1.67,2.38-2.46,3.62-1.05,1.65-2.2,3.12-3.75,3.99-1.74.98-4.05.43-5.24-1.28-.98-1.41-.77-3.12.52-3.96.41-.26.89-.32,1.31-.56.3-.17.74-.41.79-.71.05-.34-.18-.95-.42-1.14-1.38-1.06-2.78-2.01-4.51-1.45-1.92.63-3.04,2.47-4.16,4.31-1.57,2.58-3.3,4.82-5.96,5.43-.25.06-.67.57-.63.69.12.43.36.88.65,1.14.18.16.55.02.82-.05,2.5-.64,4.2-2.74,5.78-5.12.97-1.45,2.02-2.83,3.1-4.14.59-.71,1.34-.78,2.18-.12-.35.51-.66,1.01-1,1.45-.78,1-.93,2.27-.5,3.42.43,1.15,1.04,2.38,1.83,3.1,2.14,1.93,4.44,1.87,6.77.35,2.13-1.39,3.32-3.95,4.89-6.06.76-1.02,1.77-1.76,2.72-2.5.27-.22.74-.03,1.11-.03-.54,1.26-1.19,2.21-1.38,3.3-.4,2.34.43,4.07,2.28,5.34,3.04,2.07,5.96,1.1,8.55-2.16,1.37-1.73,2.55-3.71,3.87-5.5.7-.95,1.61-1.17,2.75-.8-.29.44-.49.75-.69,1.05-1.15,1.71-1.28,3.07-.42,5.02,1.1,2.51,2.95,3.34,5.02,3.52.33.03.59-.07.76-.27.06.08.13.15.2.22.18.16.55.02.82-.05,2.5-.64,4.2-2.74,5.78-5.12.97-1.45,2.02-2.83,3.1-4.14.59-.71,1.34-.78,2.18-.12-.35.51-.66,1.01-1,1.45-.78,1-.93,2.27-.5,3.42.43,1.15,1.04,2.38,1.83,3.1,2.14,1.93,4.44,1.87,6.77.35,2.13-1.39,3.33-3.95,4.89-6.06.76-1.02,1.77-1.76,2.72-2.5.27-.22.74-.03,1.11-.03-.54,1.26-1.19,2.21-1.38,3.3-.4,2.34.43,4.07,2.28,5.34,3.04,2.07,5.96,1.1,8.55-2.16,1.37-1.73,2.55-3.71,3.87-5.5.7-.95,1.61-1.17,2.75-.8-.29.44-.49.75-.69,1.05-1.15,1.71-1.28,3.07-.42,5.02,1.1,2.51,2.95,3.34,5.02,3.52.41.04.7-.11.87-.42.09.14.19.27.3.37.18.16.55.02.82-.05,2.5-.64,4.2-2.74,5.78-5.12.97-1.45,2.02-2.83,3.1-4.14.59-.71,1.34-.78,2.18-.12-.35.51-.66,1.01-1,1.45-.78,1-.93,2.27-.5,3.42.43,1.15,1.04,2.38,1.83,3.1,2.14,1.93,4.44,1.87,6.77.35,2.13-1.39,3.33-3.95,4.89-6.06.76-1.02,1.77-1.76,2.72-2.5.27-.22.74-.03,1.11-.03-.54,1.26-1.19,2.21-1.38,3.3-.4,2.34.43,4.07,2.28,5.34,3.04,2.07,5.96,1.1,8.55-2.16,1.37-1.73,2.55-3.71,3.87-5.5.7-.95,1.61-1.17,2.75-.8-.29.44-.49.75-.69,1.05-1.15,1.71-1.28,3.07-.42,5.02,1.1,2.51,2.95,3.34,5.02,3.52.28.03.51-.05.68-.19.04.05.08.1.13.14.18.16.55.02.82-.05,2.5-.64,4.2-2.74,5.78-5.12.97-1.45,2.02-2.83,3.1-4.14.59-.71,1.34-.78,2.18-.12-.35.51-.66,1.01-1,1.45-.78,1-.93,2.27-.5,3.42.43,1.15,1.04,2.38,1.83,3.1,2.14,1.93,4.44,1.87,6.77.35,2.13-1.39,3.33-3.95,4.89-6.06.76-1.02,1.77-1.76,2.72-2.5.27-.22.74-.03,1.11-.03-.54,1.26-1.19,2.21-1.38,3.3-.4,2.34.43,4.07,2.28,5.34,3.04,2.07,5.96,1.1,8.55-2.16,1.37-1.73,2.55-3.71,3.87-5.5.7-.95,1.61-1.17,2.75-.8-.29.44-.49.75-.69,1.05-1.15,1.71-1.28,3.07-.42,5.02,1.1,2.51,2.95,3.34,5.02,3.52.36.03.98-.27,1.4-.65.15-.02.31-.08.45-.11,2.5-.64,4.2-2.74,5.78-5.12.97-1.45,2.02-2.83,3.1-4.14.59-.71,1.34-.78,2.18-.12-.35.51-.66,1.01-1,1.45-.78,1-.93,2.27-.5,3.42.43,1.15,1.04,2.38,1.83,3.1,2.14,1.93,4.44,1.87,6.77.35,2.13-1.39,3.33-3.95,4.89-6.06.76-1.02,1.77-1.76,2.72-2.5.27-.22.74-.03,1.11-.03-.54,1.26-1.19,2.21-1.38,3.3-.4,2.34.43,4.07,2.28,5.34,3.04,2.07,5.96,1.1,8.55-2.16,1.37-1.73,2.55-3.71,3.87-5.5.7-.95,1.61-1.17,2.75-.8-.29.44-.49.75-.69,1.05-1.15,1.71-1.28,3.07-.42,5.02,1.1,2.51,2.95,3.34,5.02,3.52.33.03.59-.07.76-.27.06.08.13.15.2.22.18.16.55.02.82-.05,2.5-.64,4.2-2.74,5.78-5.12.97-1.45,2.02-2.83,3.1-4.14.59-.71,1.34-.78,2.18-.12-.35.51-.66,1.01-1,1.45-.78,1-.93,2.27-.5,3.42.43,1.15,1.04,2.38,1.83,3.1,2.14,1.93,4.44,1.87,6.77.35,2.13-1.39,3.32-3.95,4.89-6.06.76-1.02,1.77-1.76,2.72-2.5.27-.22.74-.03,1.11-.03-.54,1.26-1.19,2.21-1.38,3.3-.4,2.34.43,4.07,2.28,5.34,3.04,2.07,5.96,1.1,8.55-2.16,1.37-1.73,2.55-3.71,3.87-5.5.7-.95,1.61-1.17,2.75-.8-.29.44-.49.75-.69,1.05-1.15,1.71-1.28,3.07-.42,5.02,1.1,2.51,2.95,3.34,5.02,3.52.41.04.7-.11.87-.42.09.14.19.27.3.37.18.16.55.02.82-.05,2.5-.64,4.2-2.74,5.78-5.12.97-1.45,2.02-2.83,3.1-4.14.59-.71,1.34-.78,2.18-.12-.35.51-.66,1.01-1,1.45-.78,1-.93,2.27-.5,3.42.43,1.15,1.04,2.38,1.83,3.1,2.14,1.93,4.44,1.87,6.77.35,2.13-1.39,3.32-3.95,4.89-6.06.76-1.02,1.77-1.76,2.72-2.5.27-.22.74-.03,1.11-.03-.54,1.26-1.19,2.21-1.38,3.3-.4,2.34.43,4.07,2.28,5.34,3.04,2.07,5.96,1.1,8.55-2.16,1.37-1.73,2.55-3.71,3.87-5.5.7-.95,1.61-1.17,2.75-.8-.29.44-.49.75-.69,1.05-1.15,1.71-1.28,3.07-.42,5.02,1.1,2.51,2.95,3.34,5.02,3.52.28.03.51-.05.68-.19.04.05.08.1.13.14.18.16.55.02.82-.05,2.5-.64,4.2-2.74,5.78-5.12.97-1.45,2.02-2.83,3.1-4.14.59-.71,1.34-.78,2.18-.12-.35.51-.66,1.01-1,1.45-.78,1-.93,2.27-.5,3.42.43,1.15,1.04,2.38,1.83,3.1,2.14,1.93,4.44,1.87,6.77.35,2.13-1.39,3.32-3.95,4.89-6.06.76-1.02,1.77-1.76,2.72-2.5.27-.22.74-.03,1.11-.03-.54,1.26-1.19,2.21-1.38,3.3-.4,2.34.43,4.07,2.28,5.34,3.04,2.07,5.96,1.1,8.55-2.16,1.37-1.73,2.55-3.71,3.87-5.5.7-.95,1.61-1.17,2.75-.8-.29.44-.49.75-.69,1.05-1.15,1.71-1.28,3.07-.42,5.02,1.1,2.51,2.95,3.34,5.02,3.52.84.08,1.2-.64.99-1.91Z"/></svg>