<?xml version="1.0" encoding="utf-8"?>
<!-- Generator: Adobe Illustrator 27.5.0, SVG Export Plug-In . SVG Version: 6.00 Build 0)  -->
<svg version="1.1" id="Layer_1" xmlns="http://www.w3.org/2000/svg" xmlns:xlink="http://www.w3.org/1999/xlink" x="0px" y="0px"
	 viewBox="0 0 50 50" style="enable-background:new 0 0 50 50;" xml:space="preserve">
<style type="text/css">
	.st0{fill:#4CAF50;}
	.st1{fill:#FFFFFF;}
</style>
<g>
	<circle class="st0" cx="25" cy="25" r="23.5"/>
	<g>
		<path class="st1" d="M13.12,37.18c0.04-0.15,0.06-0.24,0.09-0.32c0.49-1.43,0.99-2.86,1.48-4.29c0.04-0.11-0.01-0.28-0.08-0.38
			c-0.73-1.08-1.31-2.23-1.69-3.47c-0.57-1.86-0.72-3.74-0.41-5.67c0.3-1.82,0.89-3.52,1.94-5.04c1.77-2.53,4.09-4.31,7.09-5.18
			c1.58-0.46,3.19-0.59,4.81-0.4c2.71,0.31,5.11,1.33,7.14,3.21c2.07,1.92,3.42,4.22,3.96,7c0.23,1.17,0.25,2.35,0.14,3.54
			c-0.16,1.77-0.69,3.43-1.55,4.98c-1.51,2.71-3.75,4.6-6.63,5.71c-1.7,0.66-3.48,0.89-5.3,0.75c-2.05-0.16-3.95-0.77-5.7-1.85
			c-0.23-0.14-0.44-0.17-0.7-0.08c-1.42,0.47-2.85,0.92-4.27,1.38C13.36,37.1,13.27,37.13,13.12,37.18z M28.85,32.06
			c0.63-0.03,1.17-0.18,1.59-0.64c0.37-0.4,0.77-0.76,1.14-1.15c0.56-0.57,0.61-1.37,0.06-1.96c-0.62-0.67-1.27-1.31-1.94-1.93
			c-0.6-0.55-1.4-0.53-1.87,0.01c-0.15,0.17-0.24,0.39-0.34,0.59c-0.32,0.62-0.95,0.94-1.6,0.69c-1.72-0.65-2.93-1.85-3.6-3.57
			c-0.08-0.2-0.07-0.46-0.04-0.67c0.1-0.57,0.52-0.85,1-1.08c0.79-0.37,1.01-1.38,0.42-2.01c-0.65-0.69-1.32-1.36-2.01-2.01
			c-0.5-0.48-1.35-0.48-1.82-0.03c-0.48,0.46-0.95,0.93-1.41,1.41c-0.39,0.4-0.5,0.92-0.46,1.45c0.09,1.05,0.47,2.01,0.96,2.93
			c0.96,1.79,2.24,3.33,3.75,4.69c1.16,1.05,2.41,1.98,3.85,2.62C27.28,31.74,28.06,31.99,28.85,32.06z"/>
		<path class="st0" d="M28.85,32.06c-0.79-0.06-1.57-0.31-2.33-0.65c-1.44-0.64-2.69-1.57-3.85-2.62c-1.51-1.36-2.79-2.9-3.75-4.69
			c-0.49-0.92-0.87-1.89-0.96-2.93c-0.04-0.53,0.07-1.05,0.46-1.45c0.46-0.48,0.93-0.95,1.41-1.41c0.47-0.45,1.32-0.44,1.82,0.03
			c0.69,0.65,1.36,1.32,2.01,2.01c0.59,0.63,0.37,1.64-0.42,2.01c-0.49,0.23-0.91,0.51-1,1.08c-0.04,0.22-0.04,0.47,0.04,0.67
			c0.67,1.72,1.88,2.92,3.6,3.57c0.65,0.25,1.28-0.07,1.6-0.69c0.11-0.2,0.2-0.42,0.34-0.59c0.47-0.55,1.28-0.57,1.87-0.01
			c0.67,0.62,1.32,1.27,1.94,1.93c0.55,0.59,0.5,1.38-0.06,1.96c-0.38,0.39-0.78,0.75-1.14,1.15
			C30.02,31.88,29.48,32.02,28.85,32.06z"/>
	</g>
</g>
</svg>
