<?xml version="1.0" encoding="utf-8"?>
<!-- Generator: Adobe Illustrator 27.5.0, SVG Export Plug-In . SVG Version: 6.00 Build 0)  -->
<svg version="1.1" id="Layer_1" xmlns="http://www.w3.org/2000/svg" xmlns:xlink="http://www.w3.org/1999/xlink" x="0px" y="0px"
	 viewBox="0 0 100 100" style="enable-background:new 0 0 100 100;" xml:space="preserve">
<style type="text/css">
	.st0{fill:#6096B4;}
</style>
<g>
	<path class="st0" d="M95,37.01c-0.1,0.28-0.21,0.55-0.29,0.83c-0.86,3.36-4.84,4.89-7.69,2.93c-0.59-0.4-1.11-0.91-1.63-1.4
		c-5.85-5.59-12.63-9.6-20.36-11.99c-3.74-1.16-7.57-1.83-11.48-2.09c-2.65-0.18-5.29-0.11-7.94,0.08
		c-5.39,0.37-10.55,1.69-15.51,3.75c-5.85,2.43-11.04,5.89-15.61,10.28c-0.37,0.36-0.75,0.71-1.15,1.04
		c-1.56,1.29-3.82,1.55-5.53,0.66c-1.87-0.98-3-2.96-2.81-5.02c0.13-1.41,0.8-2.56,1.8-3.53c3.1-2.98,6.41-5.68,10.03-8
		c5.67-3.64,11.78-6.27,18.32-7.88c5.22-1.28,10.52-1.87,15.9-1.77c8,0.14,15.66,1.78,23.01,4.9c7.08,3,13.33,7.25,18.85,12.6
		c0.93,0.9,1.68,1.89,1.87,3.22c0.01,0.07,0.13,0.13,0.2,0.19C95,36.21,95,36.61,95,37.01z"/>
	<path class="st0" d="M49.3,31.97c8.55,0.07,15.79,1.99,22.53,5.79c3.48,1.96,6.63,4.36,9.43,7.2c1.55,1.58,1.96,3.71,1.13,5.67
		c-1.28,3.02-5.16,4.05-7.76,2.04c-0.37-0.29-0.73-0.59-1.06-0.91c-2.97-2.87-6.36-5.12-10.14-6.75c-2.86-1.23-5.84-2.02-8.93-2.43
		c-2.43-0.32-4.86-0.4-7.28-0.2c-4.3,0.35-8.42,1.44-12.3,3.37c-3.22,1.6-6.11,3.66-8.7,6.15c-0.91,0.88-1.93,1.57-3.24,1.75
		c-2.04,0.29-4.09-0.65-5.13-2.39c-1.06-1.77-0.96-4.22,0.35-5.78c0.78-0.93,1.7-1.74,2.61-2.54c4.67-4.07,9.96-7.06,15.88-8.92
		c2.59-0.81,5.24-1.43,7.95-1.7C46.44,32.14,48.28,32.05,49.3,31.97z"/>
	<path class="st0" d="M49.5,49.1c4.88-0.05,9.57,1.07,13.91,3.55c2.25,1.29,4.34,2.81,6.09,4.74c1.38,1.52,1.62,3.87,0.65,5.7
		c-0.94,1.78-3.12,2.98-5.08,2.73c-1.02-0.13-1.93-0.57-2.75-1.23c-1.18-0.95-2.31-1.98-3.59-2.78c-2.32-1.46-4.87-2.23-7.64-2.39
		c-5-0.29-9.3,1.28-12.95,4.68c-1.12,1.04-2.37,1.76-3.96,1.74c-2.76-0.02-5.13-2.56-5-5.31c0.07-1.47,0.67-2.66,1.71-3.66
		c4.22-4.05,9.2-6.59,15-7.46c0.58-0.09,1.16-0.14,1.74-0.19C48.22,49.17,48.81,49.14,49.5,49.1z"/>
	<path class="st0" d="M49.9,85.1c-4.42,0.17-8.77-3.69-8.7-8.75c0.06-4.91,3.77-8.7,8.75-8.75c4.9-0.06,8.81,4,8.78,8.83
		C58.7,81.64,54.23,85.31,49.9,85.1z"/>
</g>
</svg>
